0
SECTION
2
HEADER
9
$INSUNITS
70
4
9
$ACADVER
1
AC1014
9
$HANDSEED
5
FFFF
0
ENDSEC
0
SECTION
2
TABLES
0
TABLE
2
VPORT
5
8
100
AcDbSymbolTable
0
ENDTAB
0
TABLE
2
LTYPE
5
5
100
AcDbSymbolTable
0
LTYPE
5
14
100
AcDbSymbolTableRecord
100
AcDbLinetypeTableRecord
2
BYBLOCK
70
0
0
LTYPE
5
15
100
AcDbSymbolTableRecord
100
AcDbLinetypeTableRecord
2
BYLAYER
70
0
0
ENDTAB
0
TABLE
2
LAYER
5
2
100
AcDbSymbolTable
70
2
0
LAYER
5
50
100
AcDbSymbolTableRecord
100
AcDbLayerTableRecord
2
0
70
0
6
CONTINUOUS
0
ENDTAB
0
TABLE
2
STYLE
5
3
100
AcDbSymbolTable
70
1
0
STYLE
5
11
100
AcDbSymbolTableRecord
100
AcDbTextStyleTableRecord
2
STANDARD
70
0
0
ENDTAB
0
TABLE
2
VIEW
5
6
100
AcDbSymbolTable
70
0
0
ENDTAB
0
TABLE
2
UCS
5
7
100
AcDbSymbolTable
70
0
0
ENDTAB
0
TABLE
2
APPID
5
9
100
AcDbSymbolTable
70
2
0
APPID
5
12
100
AcDbSymbolTableRecord
100
AcDbRegAppTableRecord
2
ACAD
70
0
0
ENDTAB
0
TABLE
2
DIMSTYLE
5
A
100
AcDbSymbolTable
70
1
0
ENDTAB
0
TABLE
2
BLOCK_RECORD
5
1
100
AcDbSymbolTable
70
1
0
BLOCK_RECORD
5
1F
100
AcDbSymbolTableRecord
100
AcDbBlockTableRecord
2
*MODEL_SPACE
0
BLOCK_RECORD
5
1B
100
AcDbSymbolTableRecord
100
AcDbBlockTableRecord
2
*PAPER_SPACE
0
ENDTAB
0
ENDSEC
0
SECTION
2
BLOCKS
0
BLOCK
5
20
100
AcDbEntity
100
AcDbBlockBegin
2
*MODEL_SPACE
0
ENDBLK
5
21
100
AcDbEntity
100
AcDbBlockEnd
0
BLOCK
5
1C
100
AcDbEntity
100
AcDbBlockBegin
2
*PAPER_SPACE
0
ENDBLK
5
1D
100
AcDbEntity
100
AcDbBlockEnd
0
ENDSEC
0
SECTION
2
ENTITIES
0
LWPOLYLINE
5
100
100
AcDbEntity
8
0
100
AcDbPolyline
90
4
70
1
43
0.0
10
2.1700002980232247
20
30.050000402331353
10
20.000000298023224
20
30.050000402331353
10
20.000000298023224
20
-0.94999959766865039
10
2.1700002980232247
20
-0.9499995976686515
0
CIRCLE
5
101
100
AcDbEntity
8
0
100
AcDbCircle
10
6.000000074505806
20
4.0000000149011612
30
0
40
0.44450000000000001
210
0
220
0
230
1
0
CIRCLE
5
102
100
AcDbEntity
8
0
100
AcDbCircle
10
8.032000074505806
20
4.0000000149011612
30
0
40
0.44450000000000001
210
0
220
0
230
1
0
CIRCLE
5
103
100
AcDbEntity
8
0
100
AcDbCircle
10
10.064000074505808
20
4.0000000149011612
30
0
40
0.44450000000000001
210
0
220
0
230
1
0
CIRCLE
5
104
100
AcDbEntity
8
0
100
AcDbCircle
10
12.096000074505806
20
4.0000000149011612
30
0
40
0.44450000000000001
210
0
220
0
230
1
0
CIRCLE
5
105
100
AcDbEntity
8
0
100
AcDbCircle
10
16.160000074505806
20
4.0000000149011612
30
0
40
0.44450000000000001
210
0
220
0
230
1
0
CIRCLE
5
106
100
AcDbEntity
8
0
100
AcDbCircle
10
14.12800007450581
20
4.0000000149011612
30
0
40
0.44450000000000001
210
0
220
0
230
1
0
CIRCLE
5
107
100
AcDbEntity
8
0
100
AcDbCircle
10
4.984000074505806
20
1.4600000149011616
30
0
40
0.44450000000000001
210
0
220
0
230
1
0
CIRCLE
5
108
100
AcDbEntity
8
0
100
AcDbCircle
10
7.016000074505806
20
1.4600000149011616
30
0
40
0.44450000000000001
210
0
220
0
230
1
0
CIRCLE
5
109
100
AcDbEntity
8
0
100
AcDbCircle
10
9.0480000745058078
20
1.4600000149011616
30
0
40
0.44450000000000001
210
0
220
0
230
1
0
CIRCLE
5
110
100
AcDbEntity
8
0
100
AcDbCircle
10
13.112000074505804
20
1.4600000149011616
30
0
40
0.44450000000000001
210
0
220
0
230
1
0
CIRCLE
5
111
100
AcDbEntity
8
0
100
AcDbCircle
10
15.144000074505808
20
1.4600000149011616
30
0
40
0.44450000000000001
210
0
220
0
230
1
0
CIRCLE
5
112
100
AcDbEntity
8
0
100
AcDbCircle
10
17.176000074505808
20
1.4600000149011616
30
0
40
0.44450000000000001
210
0
220
0
230
1
0
CIRCLE
5
113
100
AcDbEntity
8
0
100
AcDbCircle
10
4.984000074505806
20
-1.0799999850988384
30
0
40
0.50800000000000001
210
0
220
0
230
1
0
CIRCLE
5
114
100
AcDbEntity
8
0
100
AcDbCircle
10
4.984000074505806
20
-1.0799999850988384
30
0
40
0.50800000000000001
210
0
220
0
230
1
0
CIRCLE
5
115
100
AcDbEntity
8
0
100
AcDbCircle
10
7.5240000745058051
20
-1.0799999850988384
30
0
40
0.50800000000000001
210
0
220
0
230
1
0
CIRCLE
5
116
100
AcDbEntity
8
0
100
AcDbCircle
10
17.176000074505808
20
-1.0799999850988384
30
0
40
0.50800000000000001
210
0
220
0
230
1
0
CIRCLE
5
117
100
AcDbEntity
8
0
100
AcDbCircle
10
14.636000074505805
20
-1.0799999850988384
30
0
40
0.50800000000000001
210
0
220
0
230
1
0
CIRCLE
5
118
100
AcDbEntity
8
0
100
AcDbCircle
10
4.7300000745058055
20
19.240000014901163
30
0
40
1.6256000000000002
210
0
220
0
230
1
0
CIRCLE
5
119
100
AcDbEntity
8
0
100
AcDbCircle
10
17.430000074505806
20
19.240000014901163
30
0
40
1.6256000000000002
210
0
220
0
230
1
0
CIRCLE
5
120
100
AcDbEntity
8
0
100
AcDbCircle
10
19.144500074505807
20
22.415000014901164
30
0
40
0.77469999999999994
210
0
220
0
230
1
0
CIRCLE
5
121
100
AcDbEntity
8
0
100
AcDbCircle
10
3.0155000745058058
20
22.415000014901164
30
0
40
0.77469999999999994
210
0
220
0
230
1
0
CIRCLE
5
122
100
AcDbEntity
8
0
100
AcDbCircle
10
3.0155000745058058
20
22.415000014901164
30
0
40
0.050000000000001293
210
0
220
0
230
1
0
CIRCLE
5
123
100
AcDbEntity
8
0
100
AcDbCircle
10
4.7300000745058055
20
19.240000014901163
30
0
40
0.050000000000001293
210
0
220
0
230
1
0
CIRCLE
5
124
100
AcDbEntity
8
0
100
AcDbCircle
10
17.430000074505806
20
19.240000014901163
30
0
40
0.050000000000001293
210
0
220
0
230
1
0
CIRCLE
5
125
100
AcDbEntity
8
0
100
AcDbCircle
10
12.096000074505806
20
4.0000000149011612
30
0
40
0.050000000000001293
210
0
220
0
230
1
0
CIRCLE
5
126
100
AcDbEntity
8
0
100
AcDbCircle
10
4.984000074505806
20
1.4600000149011616
30
0
40
0.050000000000001293
210
0
220
0
230
1
0
CIRCLE
5
127
100
AcDbEntity
8
0
100
AcDbCircle
10
8.032000074505806
20
4.0000000149011612
30
0
40
0.050000000000001293
210
0
220
0
230
1
0
CIRCLE
5
128
100
AcDbEntity
8
0
100
AcDbCircle
10
7.016000074505806
20
1.4600000149011616
30
0
40
0.050000000000001293
210
0
220
0
230
1
0
CIRCLE
5
129
100
AcDbEntity
8
0
100
AcDbCircle
10
6.000000074505806
20
4.0000000149011612
30
0
40
0.050000000000001293
210
0
220
0
230
1
0
CIRCLE
5
130
100
AcDbEntity
8
0
100
AcDbCircle
10
10.064000074505808
20
4.0000000149011612
30
0
40
0.050000000000001293
210
0
220
0
230
1
0
CIRCLE
5
131
100
AcDbEntity
8
0
100
AcDbCircle
10
4.984000074505806
20
-1.0799999850988384
30
0
40
0.050000000000001293
210
0
220
0
230
1
0
CIRCLE
5
132
100
AcDbEntity
8
0
100
AcDbCircle
10
17.176000074505808
20
1.4600000149011616
30
0
40
0.050000000000001293
210
0
220
0
230
1
0
CIRCLE
5
133
100
AcDbEntity
8
0
100
AcDbCircle
10
7.5240000745058051
20
-1.0799999850988384
30
0
40
0.050000000000001293
210
0
220
0
230
1
0
CIRCLE
5
134
100
AcDbEntity
8
0
100
AcDbCircle
10
15.144000074505808
20
1.4600000149011616
30
0
40
0.050000000000001293
210
0
220
0
230
1
0
CIRCLE
5
135
100
AcDbEntity
8
0
100
AcDbCircle
10
14.636000074505805
20
-1.0799999850988384
30
0
40
0.050000000000001293
210
0
220
0
230
1
0
CIRCLE
5
136
100
AcDbEntity
8
0
100
AcDbCircle
10
14.12800007450581
20
4.0000000149011612
30
0
40
0.050000000000001293
210
0
220
0
230
1
0
CIRCLE
5
137
100
AcDbEntity
8
0
100
AcDbCircle
10
9.0480000745058078
20
1.4600000149011616
30
0
40
0.050000000000001293
210
0
220
0
230
1
0
CIRCLE
5
138
100
AcDbEntity
8
0
100
AcDbCircle
10
13.112000074505804
20
1.4600000149011616
30
0
40
0.050000000000001293
210
0
220
0
230
1
0
CIRCLE
5
139
100
AcDbEntity
8
0
100
AcDbCircle
10
17.176000074505808
20
-1.0799999850988384
30
0
40
0.050000000000001293
210
0
220
0
230
1
0
CIRCLE
5
140
100
AcDbEntity
8
0
100
AcDbCircle
10
16.160000074505806
20
4.0000000149011612
30
0
40
0.050000000000001293
210
0
220
0
230
1
0
CIRCLE
5
141
100
AcDbEntity
8
0
100
AcDbCircle
10
19.144500074505807
20
22.415000014901164
30
0
40
0.050000000000001293
210
0
220
0
230
1
0
ENDSEC
0
SECTION
2
OBJECTS
0
DICTIONARY
5
C
100
AcDbDictionary
3
ACAD_GROUP
350
D
3
ACAD_MLINESTYLE
350
17
0
DICTIONARY
5
D
100
AcDbDictionary
0
DICTIONARY
5
1A
330
C
100
AcDbDictionary
0
DICTIONARY
5
17
100
AcDbDictionary
0
ENDSEC
0
EOF
