%TF.GenerationSoftware,KiCad,Pcbnew,(5.99.0-6751-g76ac8b5acf)*%
%TF.CreationDate,2020-12-26T11:20:11-05:00*%
%TF.ProjectId,CM4_NAS,434d345f-4e41-4532-9e6b-696361645f70,rev?*%
%TF.SameCoordinates,Original*%
%TF.FileFunction,Soldermask,Top*%
%TF.FilePolarity,Negative*%
%FSLAX46Y46*%
G04 Gerber Fmt 4.6, Leading zero omitted, Abs format (unit mm)*
G04 Created by KiCad (PCBNEW (5.99.0-6751-g76ac8b5acf)) date 2020-12-26 11:20:11*
%MOMM*%
%LPD*%
G01*
G04 APERTURE LIST*
G04 Aperture macros list*
%AMRoundRect*
0 Rectangle with rounded corners*
0 $1 Rounding radius*
0 $2 $3 $4 $5 $6 $7 $8 $9 X,Y pos of 4 corners*
0 Add a 4 corners polygon primitive as box body*
4,1,4,$2,$3,$4,$5,$6,$7,$8,$9,$2,$3,0*
0 Add four circle primitives for the rounded corners*
1,1,$1+$1,$2,$3,0*
1,1,$1+$1,$4,$5,0*
1,1,$1+$1,$6,$7,0*
1,1,$1+$1,$8,$9,0*
0 Add four rect primitives between the rounded corners*
20,1,$1+$1,$2,$3,$4,$5,0*
20,1,$1+$1,$4,$5,$6,$7,0*
20,1,$1+$1,$6,$7,$8,$9,0*
20,1,$1+$1,$8,$9,$2,$3,0*%
G04 Aperture macros list end*
%ADD10R,1.700000X1.700000*%
%ADD11O,1.700000X1.700000*%
%ADD12R,0.550000X0.300000*%
%ADD13R,0.550000X0.400000*%
%ADD14RoundRect,0.250000X-0.600000X-0.725000X0.600000X-0.725000X0.600000X0.725000X-0.600000X0.725000X0*%
%ADD15O,1.700000X1.950000*%
%ADD16R,0.700000X0.200000*%
%ADD17C,6.100000*%
%ADD18RoundRect,0.250000X0.600000X0.725000X-0.600000X0.725000X-0.600000X-0.725000X0.600000X-0.725000X0*%
%ADD19R,0.650000X0.400000*%
%ADD20C,1.300000*%
%ADD21R,1.300000X1.300000*%
%ADD22C,2.350000*%
%ADD23RoundRect,0.250000X-0.725000X0.600000X-0.725000X-0.600000X0.725000X-0.600000X0.725000X0.600000X0*%
%ADD24O,1.950000X1.700000*%
%ADD25RoundRect,0.249900X-0.600100X-0.725100X0.600100X-0.725100X0.600100X0.725100X-0.600100X0.725100X0*%
%ADD26C,3.000000*%
%ADD27C,1.524000*%
%ADD28RoundRect,0.228600X0.533400X0.533400X-0.533400X0.533400X-0.533400X-0.533400X0.533400X-0.533400X0*%
%ADD29C,3.900000*%
%ADD30C,1.600000*%
%ADD31O,1.600000X1.600000*%
%ADD32RoundRect,0.100000X0.100000X-0.712500X0.100000X0.712500X-0.100000X0.712500X-0.100000X-0.712500X0*%
%ADD33R,1.200000X1.200000*%
%ADD34C,1.200000*%
%ADD35O,2.900000X1.900000*%
%ADD36R,1.800000X1.800000*%
%ADD37C,1.800000*%
G04 APERTURE END LIST*
D10*
%TO.C,J12*%
X161036000Y-93218000D03*
D11*
X163576000Y-93218000D03*
X166116000Y-93218000D03*
%TD*%
D12*
%TO.C,U2*%
X167060000Y-110980000D03*
X167060000Y-110480000D03*
D13*
X167060000Y-109980000D03*
D12*
X167060000Y-109480000D03*
X167060000Y-108980000D03*
X166290000Y-108980000D03*
X166290000Y-109480000D03*
D13*
X166290000Y-109980000D03*
D12*
X166290000Y-110480000D03*
X166290000Y-110980000D03*
%TD*%
D10*
%TO.C,J15*%
X112550000Y-76950000D03*
D11*
X110010000Y-76950000D03*
X107470000Y-76950000D03*
%TD*%
D14*
%TO.C,J7*%
X108712000Y-136652000D03*
D15*
X111212000Y-136652000D03*
X113712000Y-136652000D03*
X116212000Y-136652000D03*
%TD*%
D12*
%TO.C,U3*%
X156660000Y-119390000D03*
X156660000Y-118890000D03*
D13*
X156660000Y-118390000D03*
D12*
X156660000Y-117890000D03*
X156660000Y-117390000D03*
X155890000Y-117390000D03*
X155890000Y-117890000D03*
D13*
X155890000Y-118390000D03*
D12*
X155890000Y-118890000D03*
X155890000Y-119390000D03*
%TD*%
D16*
%TO.C,Module1*%
X118755000Y-93319000D03*
X121835000Y-93319000D03*
X118755000Y-93719000D03*
X121835000Y-93719000D03*
X118755000Y-94119000D03*
X121835000Y-94119000D03*
X118755000Y-94519000D03*
X121835000Y-94519000D03*
X118755000Y-94919000D03*
X121835000Y-94919000D03*
X118755000Y-95319000D03*
X121835000Y-95319000D03*
X118755000Y-95719000D03*
X121835000Y-95719000D03*
X118755000Y-96119000D03*
X121835000Y-96119000D03*
X118755000Y-96519000D03*
X121835000Y-96519000D03*
X118755000Y-96919000D03*
X121835000Y-96919000D03*
X118755000Y-97319000D03*
X121835000Y-97319000D03*
X118755000Y-97719000D03*
X121835000Y-97719000D03*
X118755000Y-98119000D03*
X121835000Y-98119000D03*
X118755000Y-98519000D03*
X121835000Y-98519000D03*
X118755000Y-98919000D03*
X121835000Y-98919000D03*
X118755000Y-99319000D03*
X121835000Y-99319000D03*
X118755000Y-99719000D03*
X121835000Y-99719000D03*
X118755000Y-100119000D03*
X121835000Y-100119000D03*
X118755000Y-100519000D03*
X121835000Y-100519000D03*
X118755000Y-100919000D03*
X121835000Y-100919000D03*
X118755000Y-101319000D03*
X121835000Y-101319000D03*
X118755000Y-101719000D03*
X121835000Y-101719000D03*
X118755000Y-102119000D03*
X121835000Y-102119000D03*
X118755000Y-102519000D03*
X121835000Y-102519000D03*
X118755000Y-102919000D03*
X121835000Y-102919000D03*
X118755000Y-103319000D03*
X121835000Y-103319000D03*
X118755000Y-103719000D03*
X121835000Y-103719000D03*
X118755000Y-104119000D03*
X121835000Y-104119000D03*
X118755000Y-104519000D03*
X121835000Y-104519000D03*
X118755000Y-104919000D03*
X121835000Y-104919000D03*
X118755000Y-105319000D03*
X121835000Y-105319000D03*
X118755000Y-105719000D03*
X121835000Y-105719000D03*
X118755000Y-106119000D03*
X121835000Y-106119000D03*
X118755000Y-106519000D03*
X121835000Y-106519000D03*
X118755000Y-106919000D03*
X121835000Y-106919000D03*
X118755000Y-107319000D03*
X121835000Y-107319000D03*
X118755000Y-107719000D03*
X121835000Y-107719000D03*
X118755000Y-108119000D03*
X121835000Y-108119000D03*
X118755000Y-108519000D03*
X121835000Y-108519000D03*
X118755000Y-108919000D03*
X121835000Y-108919000D03*
X118755000Y-109319000D03*
X121835000Y-109319000D03*
X118755000Y-109719000D03*
X121835000Y-109719000D03*
X118755000Y-110119000D03*
X121835000Y-110119000D03*
X118755000Y-110519000D03*
X121835000Y-110519000D03*
X118755000Y-110919000D03*
X121835000Y-110919000D03*
X118755000Y-111319000D03*
X121835000Y-111319000D03*
X118755000Y-111719000D03*
X121835000Y-111719000D03*
X118755000Y-112119000D03*
X121835000Y-112119000D03*
X118755000Y-112519000D03*
X121835000Y-112519000D03*
X118755000Y-112919000D03*
X121835000Y-112919000D03*
X152675000Y-93319000D03*
X155755000Y-93319000D03*
X152675000Y-93719000D03*
X155755000Y-93719000D03*
X152675000Y-94119000D03*
X155755000Y-94119000D03*
X152675000Y-94519000D03*
X155755000Y-94519000D03*
X152675000Y-94919000D03*
X155755000Y-94919000D03*
X152675000Y-95319000D03*
X155755000Y-95319000D03*
X152675000Y-95719000D03*
X155755000Y-95719000D03*
X152675000Y-96119000D03*
X155755000Y-96119000D03*
X152675000Y-96519000D03*
X155755000Y-96519000D03*
X152675000Y-96919000D03*
X155755000Y-96919000D03*
X152675000Y-97319000D03*
X155755000Y-97319000D03*
X152675000Y-97719000D03*
X155755000Y-97719000D03*
X152675000Y-98119000D03*
X155755000Y-98119000D03*
X152675000Y-98519000D03*
X155755000Y-98519000D03*
X152675000Y-98919000D03*
X155755000Y-98919000D03*
X152675000Y-99319000D03*
X155755000Y-99319000D03*
X152675000Y-99719000D03*
X155755000Y-99719000D03*
X152675000Y-100119000D03*
X155755000Y-100119000D03*
X152675000Y-100519000D03*
X155755000Y-100519000D03*
X152675000Y-100919000D03*
X155755000Y-100919000D03*
X152675000Y-101319000D03*
X155755000Y-101319000D03*
X152675000Y-101719000D03*
X155755000Y-101719000D03*
X152675000Y-102119000D03*
X155755000Y-102119000D03*
X152675000Y-102519000D03*
X155755000Y-102519000D03*
X152675000Y-102919000D03*
X155755000Y-102919000D03*
X152675000Y-103319000D03*
X155755000Y-103319000D03*
X152675000Y-103719000D03*
X155755000Y-103719000D03*
X152675000Y-104119000D03*
X155755000Y-104119000D03*
X152675000Y-104519000D03*
X155755000Y-104519000D03*
X152675000Y-104919000D03*
X155755000Y-104919000D03*
X152675000Y-105319000D03*
X155755000Y-105319000D03*
X152675000Y-105719000D03*
X155755000Y-105719000D03*
X152675000Y-106119000D03*
X155755000Y-106119000D03*
X152675000Y-106519000D03*
X155755000Y-106519000D03*
X152675000Y-106919000D03*
X155755000Y-106919000D03*
X152675000Y-107319000D03*
X155755000Y-107319000D03*
X152675000Y-107719000D03*
X155755000Y-107719000D03*
X152675000Y-108119000D03*
X155755000Y-108119000D03*
X152675000Y-108519000D03*
X155755000Y-108519000D03*
X152675000Y-108919000D03*
X155755000Y-108919000D03*
X152675000Y-109319000D03*
X155755000Y-109319000D03*
X152675000Y-109719000D03*
X155755000Y-109719000D03*
X152675000Y-110119000D03*
X155755000Y-110119000D03*
X152675000Y-110519000D03*
X155755000Y-110519000D03*
X152675000Y-110919000D03*
X155755000Y-110919000D03*
X152675000Y-111319000D03*
X155755000Y-111319000D03*
X152675000Y-111719000D03*
X155755000Y-111719000D03*
X152675000Y-112119000D03*
X155755000Y-112119000D03*
X152675000Y-112519000D03*
X155755000Y-112519000D03*
X152675000Y-112919000D03*
X155755000Y-112919000D03*
D17*
X120755000Y-129619000D03*
X120755000Y-81619000D03*
X153755000Y-129619000D03*
X153755000Y-81619000D03*
%TD*%
D12*
%TO.C,U5*%
X167640000Y-87868000D03*
X167640000Y-87368000D03*
D13*
X167640000Y-86868000D03*
D12*
X167640000Y-86368000D03*
X167640000Y-85868000D03*
X166870000Y-85868000D03*
X166870000Y-86368000D03*
D13*
X166870000Y-86868000D03*
D12*
X166870000Y-87368000D03*
X166870000Y-87868000D03*
%TD*%
D18*
%TO.C,J5*%
X108120000Y-116650000D03*
D15*
X105620000Y-116650000D03*
X103120000Y-116650000D03*
%TD*%
D19*
%TO.C,U1*%
X140086000Y-140096000D03*
X140086000Y-138796000D03*
X141986000Y-138796000D03*
X141986000Y-139446000D03*
X141986000Y-140096000D03*
%TD*%
D20*
%TO.C,J3*%
X98012000Y-83108000D03*
X96012000Y-84108000D03*
X98012000Y-85108000D03*
X96012000Y-86108000D03*
X98012000Y-87108000D03*
X96012000Y-88108000D03*
X98012000Y-89108000D03*
X96012000Y-92108000D03*
X98012000Y-93108000D03*
X96012000Y-94108000D03*
X98012000Y-95108000D03*
X96012000Y-96108000D03*
X98012000Y-97108000D03*
X96012000Y-98108000D03*
X98012000Y-99108000D03*
X96012000Y-100108000D03*
X98012000Y-101108000D03*
X96012000Y-102108000D03*
X91512000Y-83108000D03*
X93512000Y-84108000D03*
X91512000Y-85108000D03*
X93512000Y-86108000D03*
X91512000Y-87108000D03*
X93512000Y-88108000D03*
X91512000Y-89108000D03*
X93512000Y-92108000D03*
X91512000Y-93108000D03*
X93512000Y-94108000D03*
X91512000Y-95108000D03*
X93512000Y-96108000D03*
X91512000Y-97108000D03*
X93512000Y-98108000D03*
X91512000Y-99108000D03*
X93512000Y-100108000D03*
X91512000Y-101108000D03*
D21*
X93512000Y-102108000D03*
D22*
X94762000Y-90458000D03*
X94762000Y-81308000D03*
%TD*%
D23*
%TO.C,J8*%
X162814000Y-76200000D03*
D24*
X162814000Y-78700000D03*
X162814000Y-81200000D03*
X162814000Y-83700000D03*
%TD*%
D10*
%TO.C,J6*%
X113538000Y-116840000D03*
D11*
X113538000Y-119380000D03*
X113538000Y-121920000D03*
X113538000Y-124460000D03*
X113538000Y-127000000D03*
X113538000Y-129540000D03*
%TD*%
D10*
%TO.C,J11*%
X150368000Y-135636000D03*
D11*
X152908000Y-135636000D03*
X155448000Y-135636000D03*
%TD*%
D10*
%TO.C,J9*%
X141224000Y-135636000D03*
D11*
X143764000Y-135636000D03*
X146304000Y-135636000D03*
%TD*%
D25*
%TO.C,J4*%
X103400000Y-107170000D03*
D15*
X105900000Y-107170000D03*
X108400000Y-107170000D03*
X110900000Y-107170000D03*
%TD*%
D26*
%TO.C,U4*%
X159506000Y-135097000D03*
X175636000Y-135105000D03*
D27*
X161456000Y-111595000D03*
X163996000Y-111555000D03*
X171116000Y-111585000D03*
X173656000Y-111575000D03*
X161466000Y-114145000D03*
X163496000Y-114135000D03*
X165506000Y-114155000D03*
X169596000Y-114135000D03*
X171626000Y-114165000D03*
X173666000Y-114135000D03*
X162486000Y-116695000D03*
X164516000Y-116695000D03*
X166546000Y-116675000D03*
X168586000Y-116695000D03*
X170616000Y-116685000D03*
D28*
X172656000Y-116685000D03*
D29*
X161196000Y-131915000D03*
X173896000Y-131925000D03*
%TD*%
D30*
%TO.C,R5*%
X102362000Y-121920000D03*
D31*
X102362000Y-129540000D03*
%TD*%
D32*
%TO.C,U6*%
X106086000Y-127842500D03*
X106736000Y-127842500D03*
X107386000Y-127842500D03*
X108036000Y-127842500D03*
X108036000Y-123617500D03*
X107386000Y-123617500D03*
X106736000Y-123617500D03*
X106086000Y-123617500D03*
%TD*%
D33*
%TO.C,C1*%
X175020000Y-106140000D03*
D34*
X173020000Y-106140000D03*
%TD*%
D10*
%TO.C,J10*%
X137160000Y-135636000D03*
D11*
X137160000Y-138176000D03*
X134620000Y-135636000D03*
X134620000Y-138176000D03*
X132080000Y-135636000D03*
X132080000Y-138176000D03*
X129540000Y-135636000D03*
X129540000Y-138176000D03*
X127000000Y-135636000D03*
X127000000Y-138176000D03*
X124460000Y-135636000D03*
X124460000Y-138176000D03*
X121920000Y-135636000D03*
X121920000Y-138176000D03*
%TD*%
D30*
%TO.C,R1*%
X160460000Y-99570000D03*
D31*
X160460000Y-107190000D03*
%TD*%
D30*
%TO.C,R4*%
X169926000Y-96520000D03*
D31*
X162306000Y-96520000D03*
%TD*%
D20*
%TO.C,J1*%
X174318000Y-79338000D03*
X174318000Y-81838000D03*
X174318000Y-83838000D03*
D21*
X174318000Y-86338000D03*
D35*
X171778000Y-76268000D03*
X171778000Y-89408000D03*
%TD*%
D33*
%TO.C,C2*%
X103378000Y-132334000D03*
D34*
X103378000Y-134334000D03*
%TD*%
D30*
%TO.C,R3*%
X168450000Y-107200000D03*
D31*
X168450000Y-99580000D03*
%TD*%
D10*
%TO.C,J2*%
X141500000Y-74700000D03*
D11*
X118640000Y-72160000D03*
X118640000Y-74700000D03*
X121180000Y-72160000D03*
X121180000Y-74700000D03*
X123720000Y-72160000D03*
X123720000Y-74700000D03*
X126260000Y-72160000D03*
X126260000Y-74700000D03*
X128800000Y-72160000D03*
X128800000Y-74700000D03*
X131340000Y-72160000D03*
X131340000Y-74700000D03*
X133880000Y-72160000D03*
X133880000Y-74700000D03*
X136420000Y-72160000D03*
X136420000Y-74700000D03*
X138960000Y-72160000D03*
X138960000Y-74700000D03*
X141500000Y-72160000D03*
%TD*%
D36*
%TO.C,D1*%
X156718000Y-73406000D03*
D37*
X154178000Y-73406000D03*
%TD*%
D30*
%TO.C,R2*%
X164420000Y-107280000D03*
D31*
X164420000Y-99660000D03*
%TD*%
M02*
