%TF.GenerationSoftware,KiCad,Pcbnew,(5.99.0-6751-g76ac8b5acf)*%
%TF.CreationDate,2020-12-27T20:09:50-05:00*%
%TF.ProjectId,CM4_NAS,434d345f-4e41-4532-9e6b-696361645f70,rev?*%
%TF.SameCoordinates,Original*%
%TF.FileFunction,Soldermask,Bot*%
%TF.FilePolarity,Negative*%
%FSLAX46Y46*%
G04 Gerber Fmt 4.6, Leading zero omitted, Abs format (unit mm)*
G04 Created by KiCad (PCBNEW (5.99.0-6751-g76ac8b5acf)) date 2020-12-27 20:09:50*
%MOMM*%
%LPD*%
G01*
G04 APERTURE LIST*
G04 Aperture macros list*
%AMRoundRect*
0 Rectangle with rounded corners*
0 $1 Rounding radius*
0 $2 $3 $4 $5 $6 $7 $8 $9 X,Y pos of 4 corners*
0 Add a 4 corners polygon primitive as box body*
4,1,4,$2,$3,$4,$5,$6,$7,$8,$9,$2,$3,0*
0 Add four circle primitives for the rounded corners*
1,1,$1+$1,$2,$3,0*
1,1,$1+$1,$4,$5,0*
1,1,$1+$1,$6,$7,0*
1,1,$1+$1,$8,$9,0*
0 Add four rect primitives between the rounded corners*
20,1,$1+$1,$2,$3,$4,$5,0*
20,1,$1+$1,$4,$5,$6,$7,0*
20,1,$1+$1,$6,$7,$8,$9,0*
20,1,$1+$1,$8,$9,$2,$3,0*%
G04 Aperture macros list end*
%ADD10O,1.950000X1.700000*%
%ADD11RoundRect,0.250000X-0.725000X0.600000X-0.725000X-0.600000X0.725000X-0.600000X0.725000X0.600000X0*%
%ADD12O,1.600000X1.600000*%
%ADD13C,1.600000*%
%ADD14R,1.700000X1.700000*%
%ADD15O,1.700000X1.700000*%
%ADD16O,1.500000X3.300000*%
%ADD17O,1.500000X2.300000*%
%ADD18RoundRect,0.250000X-0.600000X-0.725000X0.600000X-0.725000X0.600000X0.725000X-0.600000X0.725000X0*%
%ADD19O,1.700000X1.950000*%
%ADD20C,6.100000*%
%ADD21RoundRect,0.250000X0.600000X0.725000X-0.600000X0.725000X-0.600000X-0.725000X0.600000X-0.725000X0*%
%ADD22C,1.300000*%
%ADD23R,1.300000X1.300000*%
%ADD24C,2.350000*%
%ADD25RoundRect,0.249900X-0.600100X-0.725100X0.600100X-0.725100X0.600100X0.725100X-0.600100X0.725100X0*%
%ADD26C,3.000000*%
%ADD27C,1.524000*%
%ADD28RoundRect,0.228600X0.533400X0.533400X-0.533400X0.533400X-0.533400X-0.533400X0.533400X-0.533400X0*%
%ADD29C,3.900000*%
%ADD30O,2.900000X1.900000*%
G04 APERTURE END LIST*
D10*
%TO.C,J8*%
X163000000Y-83750000D03*
X163000000Y-81250000D03*
X163000000Y-78750000D03*
X163000000Y-76250000D03*
D11*
X163000000Y-73750000D03*
%TD*%
D12*
%TO.C,R6*%
X167630000Y-72750000D03*
D13*
X175250000Y-72750000D03*
%TD*%
D14*
%TO.C,J13*%
X129260000Y-75270000D03*
D15*
X129260000Y-72730000D03*
X131800000Y-75270000D03*
X131800000Y-72730000D03*
X134340000Y-75270000D03*
X134340000Y-72730000D03*
X136880000Y-75270000D03*
X136880000Y-72730000D03*
X139420000Y-75270000D03*
X139420000Y-72730000D03*
X141960000Y-75270000D03*
X141960000Y-72730000D03*
%TD*%
D16*
%TO.C,J2*%
X101340000Y-79790000D03*
X115840000Y-79790000D03*
D17*
X115840000Y-73830000D03*
X101340000Y-73830000D03*
%TD*%
D14*
%TO.C,J12*%
X161036000Y-93218000D03*
D15*
X163576000Y-93218000D03*
X166116000Y-93218000D03*
%TD*%
D14*
%TO.C,J15*%
X108940000Y-85390000D03*
D15*
X106400000Y-85390000D03*
X103860000Y-85390000D03*
%TD*%
D18*
%TO.C,J7*%
X108712000Y-136652000D03*
D19*
X111212000Y-136652000D03*
X113712000Y-136652000D03*
X116212000Y-136652000D03*
%TD*%
D20*
%TO.C,Module1*%
X120755000Y-129619000D03*
X120755000Y-81619000D03*
X153755000Y-129619000D03*
X153755000Y-81619000D03*
%TD*%
D21*
%TO.C,J5*%
X108390000Y-116640000D03*
D19*
X105890000Y-116640000D03*
X103390000Y-116640000D03*
%TD*%
D22*
%TO.C,J3*%
X98012000Y-83108000D03*
X96012000Y-84108000D03*
X98012000Y-85108000D03*
X96012000Y-86108000D03*
X98012000Y-87108000D03*
X96012000Y-88108000D03*
X98012000Y-89108000D03*
X96012000Y-92108000D03*
X98012000Y-93108000D03*
X96012000Y-94108000D03*
X98012000Y-95108000D03*
X96012000Y-96108000D03*
X98012000Y-97108000D03*
X96012000Y-98108000D03*
X98012000Y-99108000D03*
X96012000Y-100108000D03*
X98012000Y-101108000D03*
X96012000Y-102108000D03*
X91512000Y-83108000D03*
X93512000Y-84108000D03*
X91512000Y-85108000D03*
X93512000Y-86108000D03*
X91512000Y-87108000D03*
X93512000Y-88108000D03*
X91512000Y-89108000D03*
X93512000Y-92108000D03*
X91512000Y-93108000D03*
X93512000Y-94108000D03*
X91512000Y-95108000D03*
X93512000Y-96108000D03*
X91512000Y-97108000D03*
X93512000Y-98108000D03*
X91512000Y-99108000D03*
X93512000Y-100108000D03*
X91512000Y-101108000D03*
D23*
X93512000Y-102108000D03*
D24*
X94762000Y-90458000D03*
X94762000Y-81308000D03*
%TD*%
D14*
%TO.C,J6*%
X113538000Y-116840000D03*
D15*
X113538000Y-119380000D03*
X113538000Y-121920000D03*
X113538000Y-124460000D03*
X113538000Y-127000000D03*
X113538000Y-129540000D03*
%TD*%
D14*
%TO.C,J11*%
X150368000Y-135636000D03*
D15*
X152908000Y-135636000D03*
X155448000Y-135636000D03*
%TD*%
D14*
%TO.C,J9*%
X141224000Y-135636000D03*
D15*
X143764000Y-135636000D03*
X146304000Y-135636000D03*
%TD*%
D25*
%TO.C,J4*%
X103400000Y-107170000D03*
D19*
X105900000Y-107170000D03*
X108400000Y-107170000D03*
X110900000Y-107170000D03*
%TD*%
D26*
%TO.C,U4*%
X159506000Y-135097000D03*
X175636000Y-135105000D03*
D27*
X161456000Y-111595000D03*
X163996000Y-111555000D03*
X171116000Y-111585000D03*
X173656000Y-111575000D03*
X161466000Y-114145000D03*
X163496000Y-114135000D03*
X165506000Y-114155000D03*
X169596000Y-114135000D03*
X171626000Y-114165000D03*
X173666000Y-114135000D03*
X162486000Y-116695000D03*
X164516000Y-116695000D03*
X166546000Y-116675000D03*
X168586000Y-116695000D03*
X170616000Y-116685000D03*
D28*
X172656000Y-116685000D03*
D29*
X161196000Y-131915000D03*
X173896000Y-131925000D03*
%TD*%
D13*
%TO.C,R5*%
X102362000Y-121920000D03*
D12*
X102362000Y-129540000D03*
%TD*%
D14*
%TO.C,J10*%
X137160000Y-135636000D03*
D15*
X137160000Y-138176000D03*
X134620000Y-135636000D03*
X134620000Y-138176000D03*
X132080000Y-135636000D03*
X132080000Y-138176000D03*
X129540000Y-135636000D03*
X129540000Y-138176000D03*
X127000000Y-135636000D03*
X127000000Y-138176000D03*
X124460000Y-135636000D03*
X124460000Y-138176000D03*
X121920000Y-135636000D03*
X121920000Y-138176000D03*
%TD*%
D13*
%TO.C,R1*%
X160460000Y-99570000D03*
D12*
X160460000Y-107190000D03*
%TD*%
D13*
%TO.C,R4*%
X169926000Y-96520000D03*
D12*
X162306000Y-96520000D03*
%TD*%
D22*
%TO.C,J1*%
X174318000Y-79338000D03*
X174318000Y-81838000D03*
X174318000Y-83838000D03*
D23*
X174318000Y-86338000D03*
D30*
X171778000Y-76268000D03*
X171778000Y-89408000D03*
%TD*%
D13*
%TO.C,R3*%
X168450000Y-107200000D03*
D12*
X168450000Y-99580000D03*
%TD*%
D13*
%TO.C,R2*%
X164420000Y-107280000D03*
D12*
X164420000Y-99660000D03*
%TD*%
M02*
