%TF.GenerationSoftware,KiCad,Pcbnew,(5.99.0-6751-g76ac8b5acf)*%
%TF.CreationDate,2020-12-27T20:09:50-05:00*%
%TF.ProjectId,CM4_NAS,434d345f-4e41-4532-9e6b-696361645f70,rev?*%
%TF.SameCoordinates,Original*%
%TF.FileFunction,Paste,Top*%
%TF.FilePolarity,Positive*%
%FSLAX46Y46*%
G04 Gerber Fmt 4.6, Leading zero omitted, Abs format (unit mm)*
G04 Created by KiCad (PCBNEW (5.99.0-6751-g76ac8b5acf)) date 2020-12-27 20:09:50*
%MOMM*%
%LPD*%
G01*
G04 APERTURE LIST*
G04 Aperture macros list*
%AMRoundRect*
0 Rectangle with rounded corners*
0 $1 Rounding radius*
0 $2 $3 $4 $5 $6 $7 $8 $9 X,Y pos of 4 corners*
0 Add a 4 corners polygon primitive as box body*
4,1,4,$2,$3,$4,$5,$6,$7,$8,$9,$2,$3,0*
0 Add four circle primitives for the rounded corners*
1,1,$1+$1,$2,$3,0*
1,1,$1+$1,$4,$5,0*
1,1,$1+$1,$6,$7,0*
1,1,$1+$1,$8,$9,0*
0 Add four rect primitives between the rounded corners*
20,1,$1+$1,$2,$3,$4,$5,0*
20,1,$1+$1,$4,$5,$6,$7,0*
20,1,$1+$1,$6,$7,$8,$9,0*
20,1,$1+$1,$8,$9,$2,$3,0*%
G04 Aperture macros list end*
%ADD10RoundRect,0.250000X0.325000X0.450000X-0.325000X0.450000X-0.325000X-0.450000X0.325000X-0.450000X0*%
%ADD11RoundRect,0.250000X-0.475000X0.337500X-0.475000X-0.337500X0.475000X-0.337500X0.475000X0.337500X0*%
%ADD12RoundRect,0.250000X0.337500X0.475000X-0.337500X0.475000X-0.337500X-0.475000X0.337500X-0.475000X0*%
%ADD13R,0.400000X0.650000*%
%ADD14R,0.300000X2.600000*%
%ADD15R,0.550000X0.300000*%
%ADD16R,0.550000X0.400000*%
%ADD17R,0.700000X0.200000*%
%ADD18R,0.650000X0.400000*%
%ADD19RoundRect,0.100000X0.100000X-0.712500X0.100000X0.712500X-0.100000X0.712500X-0.100000X-0.712500X0*%
G04 APERTURE END LIST*
D10*
%TO.C,D2*%
X147375002Y-73500000D03*
X149425002Y-73500000D03*
%TD*%
%TO.C,D1*%
X154449999Y-73449999D03*
X156499999Y-73449999D03*
%TD*%
D11*
%TO.C,C2*%
X103360000Y-134390000D03*
X103360000Y-132315000D03*
%TD*%
D12*
%TO.C,C1*%
X171395000Y-107230000D03*
X173470000Y-107230000D03*
%TD*%
D13*
%TO.C,U7*%
X159970000Y-87580000D03*
X161270000Y-87580000D03*
X160620000Y-89480000D03*
X161270000Y-89480000D03*
X159970000Y-89480000D03*
%TD*%
D14*
%TO.C,J2*%
X104090000Y-80520000D03*
X104590000Y-80520000D03*
X105090000Y-80520000D03*
X105590000Y-80520000D03*
X106090000Y-80520000D03*
X106590000Y-80520000D03*
X107090000Y-80520000D03*
X107590000Y-80520000D03*
X108090000Y-80520000D03*
X108590000Y-80520000D03*
X109090000Y-80520000D03*
X109590000Y-80520000D03*
X110090000Y-80520000D03*
X110590000Y-80520000D03*
X111090000Y-80520000D03*
X111590000Y-80520000D03*
X112090000Y-80520000D03*
X112590000Y-80520000D03*
X113090000Y-80520000D03*
%TD*%
D15*
%TO.C,U2*%
X167060000Y-110980000D03*
X167060000Y-110480000D03*
D16*
X167060000Y-109980000D03*
D15*
X167060000Y-109480000D03*
X167060000Y-108980000D03*
X166290000Y-108980000D03*
X166290000Y-109480000D03*
D16*
X166290000Y-109980000D03*
D15*
X166290000Y-110480000D03*
X166290000Y-110980000D03*
%TD*%
%TO.C,U3*%
X156660000Y-119390000D03*
X156660000Y-118890000D03*
D16*
X156660000Y-118390000D03*
D15*
X156660000Y-117890000D03*
X156660000Y-117390000D03*
X155890000Y-117390000D03*
X155890000Y-117890000D03*
D16*
X155890000Y-118390000D03*
D15*
X155890000Y-118890000D03*
X155890000Y-119390000D03*
%TD*%
D17*
%TO.C,Module1*%
X118755000Y-93319000D03*
X121835000Y-93319000D03*
X118755000Y-93719000D03*
X121835000Y-93719000D03*
X118755000Y-94119000D03*
X121835000Y-94119000D03*
X118755000Y-94519000D03*
X121835000Y-94519000D03*
X118755000Y-94919000D03*
X121835000Y-94919000D03*
X118755000Y-95319000D03*
X121835000Y-95319000D03*
X118755000Y-95719000D03*
X121835000Y-95719000D03*
X118755000Y-96119000D03*
X121835000Y-96119000D03*
X118755000Y-96519000D03*
X121835000Y-96519000D03*
X118755000Y-96919000D03*
X121835000Y-96919000D03*
X118755000Y-97319000D03*
X121835000Y-97319000D03*
X118755000Y-97719000D03*
X121835000Y-97719000D03*
X118755000Y-98119000D03*
X121835000Y-98119000D03*
X118755000Y-98519000D03*
X121835000Y-98519000D03*
X118755000Y-98919000D03*
X121835000Y-98919000D03*
X118755000Y-99319000D03*
X121835000Y-99319000D03*
X118755000Y-99719000D03*
X121835000Y-99719000D03*
X118755000Y-100119000D03*
X121835000Y-100119000D03*
X118755000Y-100519000D03*
X121835000Y-100519000D03*
X118755000Y-100919000D03*
X121835000Y-100919000D03*
X118755000Y-101319000D03*
X121835000Y-101319000D03*
X118755000Y-101719000D03*
X121835000Y-101719000D03*
X118755000Y-102119000D03*
X121835000Y-102119000D03*
X118755000Y-102519000D03*
X121835000Y-102519000D03*
X118755000Y-102919000D03*
X121835000Y-102919000D03*
X118755000Y-103319000D03*
X121835000Y-103319000D03*
X118755000Y-103719000D03*
X121835000Y-103719000D03*
X118755000Y-104119000D03*
X121835000Y-104119000D03*
X118755000Y-104519000D03*
X121835000Y-104519000D03*
X118755000Y-104919000D03*
X121835000Y-104919000D03*
X118755000Y-105319000D03*
X121835000Y-105319000D03*
X118755000Y-105719000D03*
X121835000Y-105719000D03*
X118755000Y-106119000D03*
X121835000Y-106119000D03*
X118755000Y-106519000D03*
X121835000Y-106519000D03*
X118755000Y-106919000D03*
X121835000Y-106919000D03*
X118755000Y-107319000D03*
X121835000Y-107319000D03*
X118755000Y-107719000D03*
X121835000Y-107719000D03*
X118755000Y-108119000D03*
X121835000Y-108119000D03*
X118755000Y-108519000D03*
X121835000Y-108519000D03*
X118755000Y-108919000D03*
X121835000Y-108919000D03*
X118755000Y-109319000D03*
X121835000Y-109319000D03*
X118755000Y-109719000D03*
X121835000Y-109719000D03*
X118755000Y-110119000D03*
X121835000Y-110119000D03*
X118755000Y-110519000D03*
X121835000Y-110519000D03*
X118755000Y-110919000D03*
X121835000Y-110919000D03*
X118755000Y-111319000D03*
X121835000Y-111319000D03*
X118755000Y-111719000D03*
X121835000Y-111719000D03*
X118755000Y-112119000D03*
X121835000Y-112119000D03*
X118755000Y-112519000D03*
X121835000Y-112519000D03*
X118755000Y-112919000D03*
X121835000Y-112919000D03*
X152675000Y-93319000D03*
X155755000Y-93319000D03*
X152675000Y-93719000D03*
X155755000Y-93719000D03*
X152675000Y-94119000D03*
X155755000Y-94119000D03*
X152675000Y-94519000D03*
X155755000Y-94519000D03*
X152675000Y-94919000D03*
X155755000Y-94919000D03*
X152675000Y-95319000D03*
X155755000Y-95319000D03*
X152675000Y-95719000D03*
X155755000Y-95719000D03*
X152675000Y-96119000D03*
X155755000Y-96119000D03*
X152675000Y-96519000D03*
X155755000Y-96519000D03*
X152675000Y-96919000D03*
X155755000Y-96919000D03*
X152675000Y-97319000D03*
X155755000Y-97319000D03*
X152675000Y-97719000D03*
X155755000Y-97719000D03*
X152675000Y-98119000D03*
X155755000Y-98119000D03*
X152675000Y-98519000D03*
X155755000Y-98519000D03*
X152675000Y-98919000D03*
X155755000Y-98919000D03*
X152675000Y-99319000D03*
X155755000Y-99319000D03*
X152675000Y-99719000D03*
X155755000Y-99719000D03*
X152675000Y-100119000D03*
X155755000Y-100119000D03*
X152675000Y-100519000D03*
X155755000Y-100519000D03*
X152675000Y-100919000D03*
X155755000Y-100919000D03*
X152675000Y-101319000D03*
X155755000Y-101319000D03*
X152675000Y-101719000D03*
X155755000Y-101719000D03*
X152675000Y-102119000D03*
X155755000Y-102119000D03*
X152675000Y-102519000D03*
X155755000Y-102519000D03*
X152675000Y-102919000D03*
X155755000Y-102919000D03*
X152675000Y-103319000D03*
X155755000Y-103319000D03*
X152675000Y-103719000D03*
X155755000Y-103719000D03*
X152675000Y-104119000D03*
X155755000Y-104119000D03*
X152675000Y-104519000D03*
X155755000Y-104519000D03*
X152675000Y-104919000D03*
X155755000Y-104919000D03*
X152675000Y-105319000D03*
X155755000Y-105319000D03*
X152675000Y-105719000D03*
X155755000Y-105719000D03*
X152675000Y-106119000D03*
X155755000Y-106119000D03*
X152675000Y-106519000D03*
X155755000Y-106519000D03*
X152675000Y-106919000D03*
X155755000Y-106919000D03*
X152675000Y-107319000D03*
X155755000Y-107319000D03*
X152675000Y-107719000D03*
X155755000Y-107719000D03*
X152675000Y-108119000D03*
X155755000Y-108119000D03*
X152675000Y-108519000D03*
X155755000Y-108519000D03*
X152675000Y-108919000D03*
X155755000Y-108919000D03*
X152675000Y-109319000D03*
X155755000Y-109319000D03*
X152675000Y-109719000D03*
X155755000Y-109719000D03*
X152675000Y-110119000D03*
X155755000Y-110119000D03*
X152675000Y-110519000D03*
X155755000Y-110519000D03*
X152675000Y-110919000D03*
X155755000Y-110919000D03*
X152675000Y-111319000D03*
X155755000Y-111319000D03*
X152675000Y-111719000D03*
X155755000Y-111719000D03*
X152675000Y-112119000D03*
X155755000Y-112119000D03*
X152675000Y-112519000D03*
X155755000Y-112519000D03*
X152675000Y-112919000D03*
X155755000Y-112919000D03*
%TD*%
D15*
%TO.C,U5*%
X167335000Y-87880000D03*
X167335000Y-87380000D03*
D16*
X167335000Y-86880000D03*
D15*
X167335000Y-86380000D03*
X167335000Y-85880000D03*
X166565000Y-85880000D03*
X166565000Y-86380000D03*
D16*
X166565000Y-86880000D03*
D15*
X166565000Y-87380000D03*
X166565000Y-87880000D03*
%TD*%
D18*
%TO.C,U1*%
X140086000Y-140096000D03*
X140086000Y-138796000D03*
X141986000Y-138796000D03*
X141986000Y-139446000D03*
X141986000Y-140096000D03*
%TD*%
D19*
%TO.C,U6*%
X106086000Y-127842500D03*
X106736000Y-127842500D03*
X107386000Y-127842500D03*
X108036000Y-127842500D03*
X108036000Y-123617500D03*
X107386000Y-123617500D03*
X106736000Y-123617500D03*
X106086000Y-123617500D03*
%TD*%
M02*
