M48
; DRILL file {KiCad (5.99.0-6751-g76ac8b5acf)} date 11/03/20 00:31:55
; FORMAT={-:-/ absolute / metric / decimal}
; #@! TF.CreationDate,2020-11-03T00:31:55-05:00
; #@! TF.GenerationSoftware,Kicad,Pcbnew,(5.99.0-6751-g76ac8b5acf)
; #@! TF.FileFunction,Plated,1,4,PTH
FMAT,2
METRIC
T1C0.200
T2C0.400
T3C0.600
T4C0.700
T5C0.800
T6C0.890
T7C0.900
T8C0.950
T9C1.000
T10C1.300
T11C1.570
T12C2.350
%
G90
G05
T1
X120.68Y-98.818
X120.68Y-99.42
T2
X101.5Y-95.46
X103.2Y-110.24
X103.21Y-114.05
X103.6Y-112.1
X104.24Y-89.35
X105.231Y-126.421
X106.46Y-126.76
X108.706Y-91.914
X109.354Y-91.266
X109.41Y-101.31
X109.845Y-114.925
X110.44Y-96.09
X110.72Y-112.83
X110.81Y-110.28
X114.55Y-112.27
X115.28Y-96.1
X118.44Y-89.26
X118.66Y-122.45
X119.0Y-116.26
X119.97Y-108.74
X120.23Y-107.43
X120.42Y-102.5
X120.52Y-103.9
X120.657Y-109.87
X120.92Y-124.42
X120.96Y-77.54
X123.15Y-120.52
X123.85Y-110.92
X123.95Y-95.07
X126.33Y-77.61
X126.75Y-89.0
X127.93Y-113.07
X129.05Y-122.39
X129.66Y-123.99
X131.49Y-84.54
X132.53Y-84.52
X134.55Y-126.27
X135.85Y-80.38
X136.5Y-106.4
X137.9Y-129.96
X138.96Y-139.1
X140.64Y-137.64
X144.37Y-101.12
X144.47Y-122.97
X144.64Y-104.83
X145.47Y-90.92
X146.35Y-101.52
X146.74Y-107.84
X147.26Y-100.55
X148.34Y-119.25
X148.43Y-97.39
X148.49Y-100.65
X148.76Y-109.82
X149.02Y-111.68
X150.21Y-95.61
X150.87Y-105.24
X151.33Y-95.206
X151.35Y-99.33
X151.558Y-107.83
X153.65Y-90.01
X153.84Y-107.74
X153.88Y-109.75
X154.38Y-104.46
X154.463Y-95.108
X154.52Y-94.11
X154.66Y-89.97
X155.58Y-114.0
X156.54Y-115.54
X157.2Y-109.94
X157.39Y-97.31
X157.56Y-112.86
X157.69Y-94.52
X159.19Y-97.35
X159.65Y-114.71
X160.46Y-97.35
X160.62Y-118.28
X162.46Y-105.44
X162.992Y-97.358
X164.262Y-97.358
X166.426Y-97.358
X166.48Y-111.93
X166.67Y-115.16
X168.072Y-97.358
X169.153Y-96.763
X169.57Y-111.02
X172.6Y-112.74
X174.47Y-116.14
T3
X173.02Y-106.14
X175.02Y-106.14
X103.378Y-132.334
X103.378Y-134.334
T4
X91.512Y-83.108
X91.512Y-85.108
X91.512Y-87.108
X91.512Y-89.108
X91.512Y-93.108
X91.512Y-95.108
X91.512Y-97.108
X91.512Y-99.108
X91.512Y-101.108
X93.512Y-84.108
X93.512Y-86.108
X93.512Y-88.108
X93.512Y-92.108
X93.512Y-94.108
X93.512Y-96.108
X93.512Y-98.108
X93.512Y-100.108
X93.512Y-102.108
X96.012Y-84.108
X96.012Y-86.108
X96.012Y-88.108
X96.012Y-92.108
X96.012Y-94.108
X96.012Y-96.108
X96.012Y-98.108
X96.012Y-100.108
X96.012Y-102.108
X98.012Y-83.108
X98.012Y-85.108
X98.012Y-87.108
X98.012Y-89.108
X98.012Y-93.108
X98.012Y-95.108
X98.012Y-97.108
X98.012Y-99.108
X98.012Y-101.108
T5
X168.45Y-99.58
X168.45Y-107.2
X102.362Y-121.92
X102.362Y-129.54
X164.42Y-99.66
X164.42Y-107.28
X160.46Y-99.57
X160.46Y-107.19
X159.27Y-87.73
X166.89Y-87.73
T6
X161.456Y-111.595
X161.466Y-114.145
X162.486Y-116.695
X163.496Y-114.135
X163.996Y-111.555
X164.516Y-116.695
X165.506Y-114.155
X166.546Y-116.675
X168.586Y-116.695
X169.596Y-114.135
X170.616Y-116.685
X171.116Y-111.585
X171.626Y-114.165
X172.656Y-116.685
X173.656Y-111.575
X173.666Y-114.135
T7
X150.9Y-73.196
X153.44Y-73.196
X163.158Y-95.758
X165.658Y-95.758
X167.658Y-95.758
X170.158Y-95.758
T8
X103.4Y-107.17
X105.9Y-107.17
X108.4Y-107.17
X110.9Y-107.17
X171.958Y-78.352
X171.958Y-80.852
X171.958Y-83.352
X171.958Y-85.852
X103.12Y-116.65
X105.62Y-116.65
X108.12Y-116.65
X108.712Y-136.652
X111.212Y-136.652
X113.712Y-136.652
X116.212Y-136.652
T9
X161.798Y-78.994
X161.798Y-81.534
X161.798Y-84.074
X164.338Y-78.994
X164.338Y-81.534
X164.338Y-84.074
X118.64Y-72.16
X118.64Y-74.7
X121.18Y-72.16
X121.18Y-74.7
X123.72Y-72.16
X123.72Y-74.7
X126.26Y-72.16
X126.26Y-74.7
X128.8Y-72.16
X128.8Y-74.7
X131.34Y-72.16
X131.34Y-74.7
X133.88Y-72.16
X133.88Y-74.7
X136.42Y-72.16
X136.42Y-74.7
X138.96Y-72.16
X138.96Y-74.7
X141.5Y-72.16
X141.5Y-74.7
X159.258Y-71.54
X161.798Y-71.54
X164.338Y-71.54
X166.878Y-71.54
X169.418Y-71.54
X150.368Y-135.636
X152.908Y-135.636
X155.448Y-135.636
X113.538Y-116.84
X113.538Y-119.38
X113.538Y-121.92
X113.538Y-124.46
X113.538Y-127.0
X113.538Y-129.54
X121.92Y-135.636
X121.92Y-138.176
X124.46Y-135.636
X124.46Y-138.176
X127.0Y-135.636
X127.0Y-138.176
X129.54Y-135.636
X129.54Y-138.176
X132.08Y-135.636
X132.08Y-138.176
X134.62Y-135.636
X134.62Y-138.176
X137.16Y-135.636
X137.16Y-138.176
X107.47Y-76.95
X110.01Y-76.95
X112.55Y-76.95
X141.224Y-135.636
X143.764Y-135.636
X146.304Y-135.636
T11
X159.506Y-135.097
X175.636Y-135.105
T12
X94.762Y-81.308
X94.762Y-90.458
T10
G00X160.088Y-93.718
M15
G01X160.088Y-92.718
M16
G05
G00X173.228Y-92.718
M15
G01X173.228Y-93.718
M16
G05
T0
M30
