M48
; DRILL file {KiCad (5.99.0-6751-g76ac8b5acf)} date 12/27/20 20:09:53
; FORMAT={-:-/ absolute / metric / decimal}
; #@! TF.CreationDate,2020-12-27T20:09:53-05:00
; #@! TF.GenerationSoftware,Kicad,Pcbnew,(5.99.0-6751-g76ac8b5acf)
; #@! TF.FileFunction,Plated,1,4,PTH
FMAT,2
METRIC
T1C0.400
T2C0.700
T3C0.800
T4C0.890
T5C0.900
T6C0.950
T7C1.000
T8C1.300
T9C1.570
T10C2.350
%
G90
G05
T1
X91.52Y-91.08
X92.53Y-80.88
X99.47Y-90.09
X100.166Y-87.924
X100.814Y-87.276
X100.92Y-84.3
X101.45Y-133.28
X101.5Y-95.46
X103.2Y-110.24
X103.21Y-114.05
X103.6Y-112.1
X105.231Y-126.421
X105.64Y-113.84
X105.95Y-109.34
X105.98Y-77.67
X106.1Y-82.97
X107.405Y-126.005
X108.14Y-89.42
X108.25Y-78.25
X108.47Y-132.08
X108.5Y-93.67
X108.62Y-111.58
X108.72Y-119.47
X109.41Y-101.31
X109.474Y-78.486
X109.91Y-123.88
X110.69Y-116.19
X110.72Y-78.46
X110.72Y-112.83
X110.81Y-110.28
X111.3Y-120.82
X111.45Y-92.44
X114.55Y-112.27
X114.56Y-100.33
X114.68Y-88.21
X114.69Y-93.03
X114.755Y-132.115
X115.062Y-83.566
X115.338Y-122.762
X115.338Y-127.482
X117.07Y-93.84
X117.08Y-97.87
X117.93Y-78.57
X118.618Y-90.932
X118.66Y-122.45
X118.72Y-88.79
X119.0Y-116.26
X119.8Y-140.87
X119.97Y-108.74
X120.23Y-107.43
X120.35Y-85.74
X120.396Y-102.616
X120.52Y-103.9
X120.657Y-109.87
X120.92Y-124.42
X121.92Y-91.44
X122.428Y-90.17
X122.6Y-87.22
X123.15Y-120.52
X123.85Y-110.92
X123.95Y-95.07
X125.86Y-130.77
X126.75Y-89.0
X127.93Y-113.07
X129.05Y-122.39
X129.66Y-123.99
X130.7Y-128.42
X134.5Y-130.36
X134.55Y-126.27
X135.85Y-80.38
X136.5Y-106.4
X137.9Y-129.96
X138.96Y-139.1
X140.64Y-137.64
X142.92Y-120.5
X142.99Y-130.01
X143.1Y-101.1
X144.37Y-101.12
X144.47Y-122.97
X144.64Y-104.83
X145.47Y-90.92
X145.67Y-73.46
X146.46Y-128.63
X146.74Y-107.84
X147.26Y-100.55
X147.46Y-98.13
X148.34Y-119.25
X148.43Y-97.39
X148.49Y-100.65
X148.76Y-109.82
X149.02Y-111.68
X149.22Y-96.47
X149.39Y-101.57
X149.81Y-131.97
X150.21Y-95.61
X150.87Y-105.24
X151.33Y-95.206
X151.35Y-99.33
X151.558Y-107.83
X153.06Y-74.02
X153.65Y-90.01
X153.84Y-107.74
X153.88Y-109.75
X154.38Y-104.46
X154.463Y-95.108
X154.52Y-94.11
X154.66Y-89.97
X155.58Y-114.0
X156.52Y-133.06
X156.54Y-115.54
X157.2Y-109.94
X157.56Y-112.86
X157.69Y-94.52
X157.79Y-102.09
X157.92Y-107.0
X158.02Y-105.49
X158.59Y-73.39
X158.88Y-102.544
X158.981Y-87.561
X159.21Y-104.5
X159.371Y-96.919
X159.65Y-114.71
X159.88Y-102.53
X160.09Y-94.672
X160.09Y-95.942
X160.62Y-118.28
X161.066Y-102.376
X161.126Y-105.756
X162.46Y-105.44
X163.61Y-102.65
X164.084Y-87.884
X165.459Y-89.051
X166.48Y-111.93
X166.67Y-115.16
X169.27Y-104.09
X169.57Y-111.02
X171.54Y-94.17
X172.6Y-112.74
X174.47Y-116.14
X175.07Y-107.25
X176.24Y-93.11
T2
X91.512Y-83.108
X91.512Y-85.108
X91.512Y-87.108
X91.512Y-89.108
X91.512Y-93.108
X91.512Y-95.108
X91.512Y-97.108
X91.512Y-99.108
X91.512Y-101.108
X93.512Y-84.108
X93.512Y-86.108
X93.512Y-88.108
X93.512Y-92.108
X93.512Y-94.108
X93.512Y-96.108
X93.512Y-98.108
X93.512Y-100.108
X93.512Y-102.108
X96.012Y-84.108
X96.012Y-86.108
X96.012Y-88.108
X96.012Y-92.108
X96.012Y-94.108
X96.012Y-96.108
X96.012Y-98.108
X96.012Y-100.108
X96.012Y-102.108
X98.012Y-83.108
X98.012Y-85.108
X98.012Y-87.108
X98.012Y-89.108
X98.012Y-93.108
X98.012Y-95.108
X98.012Y-97.108
X98.012Y-99.108
X98.012Y-101.108
T3
X160.46Y-99.57
X160.46Y-107.19
X168.45Y-99.58
X168.45Y-107.2
X162.306Y-96.52
X169.926Y-96.52
X167.63Y-72.75
X175.25Y-72.75
X164.42Y-99.66
X164.42Y-107.28
X102.362Y-121.92
X102.362Y-129.54
T4
X161.456Y-111.595
X161.466Y-114.145
X162.486Y-116.695
X163.496Y-114.135
X163.996Y-111.555
X164.516Y-116.695
X165.506Y-114.155
X166.546Y-116.675
X168.586Y-116.695
X169.596Y-114.135
X170.616Y-116.685
X171.116Y-111.585
X171.626Y-114.165
X172.656Y-116.685
X173.656Y-111.575
X173.666Y-114.135
T5
X174.318Y-79.338
X174.318Y-81.838
X174.318Y-83.838
X174.318Y-86.338
T6
X163.0Y-73.75
X163.0Y-76.25
X163.0Y-78.75
X163.0Y-81.25
X163.0Y-83.75
X103.39Y-116.64
X105.89Y-116.64
X108.39Y-116.64
X108.712Y-136.652
X111.212Y-136.652
X113.712Y-136.652
X116.212Y-136.652
X103.4Y-107.17
X105.9Y-107.17
X108.4Y-107.17
X110.9Y-107.17
T7
X121.92Y-135.636
X121.92Y-138.176
X124.46Y-135.636
X124.46Y-138.176
X127.0Y-135.636
X127.0Y-138.176
X129.54Y-135.636
X129.54Y-138.176
X132.08Y-135.636
X132.08Y-138.176
X134.62Y-135.636
X134.62Y-138.176
X137.16Y-135.636
X137.16Y-138.176
X150.368Y-135.636
X152.908Y-135.636
X155.448Y-135.636
X129.26Y-72.73
X129.26Y-75.27
X131.8Y-72.73
X131.8Y-75.27
X134.34Y-72.73
X134.34Y-75.27
X136.88Y-72.73
X136.88Y-75.27
X139.42Y-72.73
X139.42Y-75.27
X141.96Y-72.73
X141.96Y-75.27
X141.224Y-135.636
X143.764Y-135.636
X146.304Y-135.636
X113.538Y-116.84
X113.538Y-119.38
X113.538Y-121.92
X113.538Y-124.46
X113.538Y-127.0
X113.538Y-129.54
X161.036Y-93.218
X163.576Y-93.218
X166.116Y-93.218
X103.86Y-85.39
X106.4Y-85.39
X108.94Y-85.39
T9
X159.506Y-135.097
X175.636Y-135.105
T10
X94.762Y-81.308
X94.762Y-90.458
T5
G00X101.34Y-74.23
M15
G01X101.34Y-73.43
M16
G05
G00X101.34Y-80.69
M15
G01X101.34Y-78.89
M16
G05
G00X115.84Y-74.23
M15
G01X115.84Y-73.43
M16
G05
G00X115.84Y-80.69
M15
G01X115.84Y-78.89
M16
G05
T8
G00X171.278Y-76.268
M15
G01X172.278Y-76.268
M16
G05
G00X172.278Y-89.408
M15
G01X171.278Y-89.408
M16
G05
T0
M30
