%TF.GenerationSoftware,KiCad,Pcbnew,(5.99.0-6751-g76ac8b5acf)*%
%TF.CreationDate,2020-12-25T16:20:44-05:00*%
%TF.ProjectId,CM4_NAS,434d345f-4e41-4532-9e6b-696361645f70,rev?*%
%TF.SameCoordinates,Original*%
%TF.FileFunction,Legend,Top*%
%TF.FilePolarity,Positive*%
%FSLAX46Y46*%
G04 Gerber Fmt 4.6, Leading zero omitted, Abs format (unit mm)*
G04 Created by KiCad (PCBNEW (5.99.0-6751-g76ac8b5acf)) date 2020-12-25 16:20:44*
%MOMM*%
%LPD*%
G01*
G04 APERTURE LIST*
%ADD10C,0.150000*%
%ADD11C,0.300000*%
%ADD12C,0.100000*%
%ADD13C,0.120000*%
G04 APERTURE END LIST*
D10*
X158710380Y-85668952D02*
X159519904Y-85668952D01*
X159615142Y-85621333D01*
X159662761Y-85573714D01*
X159710380Y-85478476D01*
X159710380Y-85288000D01*
X159662761Y-85192761D01*
X159615142Y-85145142D01*
X159519904Y-85097523D01*
X158710380Y-85097523D01*
X159662761Y-84668952D02*
X159710380Y-84526095D01*
X159710380Y-84288000D01*
X159662761Y-84192761D01*
X159615142Y-84145142D01*
X159519904Y-84097523D01*
X159424666Y-84097523D01*
X159329428Y-84145142D01*
X159281809Y-84192761D01*
X159234190Y-84288000D01*
X159186571Y-84478476D01*
X159138952Y-84573714D01*
X159091333Y-84621333D01*
X158996095Y-84668952D01*
X158900857Y-84668952D01*
X158805619Y-84621333D01*
X158758000Y-84573714D01*
X158710380Y-84478476D01*
X158710380Y-84240380D01*
X158758000Y-84097523D01*
X159186571Y-83335619D02*
X159234190Y-83192761D01*
X159281809Y-83145142D01*
X159377047Y-83097523D01*
X159519904Y-83097523D01*
X159615142Y-83145142D01*
X159662761Y-83192761D01*
X159710380Y-83288000D01*
X159710380Y-83668952D01*
X158710380Y-83668952D01*
X158710380Y-83335619D01*
X158758000Y-83240380D01*
X158805619Y-83192761D01*
X158900857Y-83145142D01*
X158996095Y-83145142D01*
X159091333Y-83192761D01*
X159138952Y-83240380D01*
X159186571Y-83335619D01*
X159186571Y-83668952D01*
X159805619Y-82907047D02*
X159805619Y-82145142D01*
X159662761Y-81954666D02*
X159710380Y-81859428D01*
X159710380Y-81668952D01*
X159662761Y-81573714D01*
X159567523Y-81526095D01*
X159519904Y-81526095D01*
X159424666Y-81573714D01*
X159377047Y-81668952D01*
X159377047Y-81811809D01*
X159329428Y-81907047D01*
X159234190Y-81954666D01*
X159186571Y-81954666D01*
X159091333Y-81907047D01*
X159043714Y-81811809D01*
X159043714Y-81668952D01*
X159091333Y-81573714D01*
X159662761Y-80716571D02*
X159710380Y-80811809D01*
X159710380Y-81002285D01*
X159662761Y-81097523D01*
X159567523Y-81145142D01*
X159186571Y-81145142D01*
X159091333Y-81097523D01*
X159043714Y-81002285D01*
X159043714Y-80811809D01*
X159091333Y-80716571D01*
X159186571Y-80668952D01*
X159281809Y-80668952D01*
X159377047Y-81145142D01*
X159710380Y-80097523D02*
X159662761Y-80192761D01*
X159567523Y-80240380D01*
X158710380Y-80240380D01*
X159662761Y-79335619D02*
X159710380Y-79430857D01*
X159710380Y-79621333D01*
X159662761Y-79716571D01*
X159567523Y-79764190D01*
X159186571Y-79764190D01*
X159091333Y-79716571D01*
X159043714Y-79621333D01*
X159043714Y-79430857D01*
X159091333Y-79335619D01*
X159186571Y-79288000D01*
X159281809Y-79288000D01*
X159377047Y-79764190D01*
X159662761Y-78430857D02*
X159710380Y-78526095D01*
X159710380Y-78716571D01*
X159662761Y-78811809D01*
X159615142Y-78859428D01*
X159519904Y-78907047D01*
X159234190Y-78907047D01*
X159138952Y-78859428D01*
X159091333Y-78811809D01*
X159043714Y-78716571D01*
X159043714Y-78526095D01*
X159091333Y-78430857D01*
X159043714Y-78145142D02*
X159043714Y-77764190D01*
X158710380Y-78002285D02*
X159567523Y-78002285D01*
X159662761Y-77954666D01*
X159710380Y-77859428D01*
X159710380Y-77764190D01*
X164364238Y-127944380D02*
X164364238Y-126944380D01*
X164697571Y-127658666D01*
X165030904Y-126944380D01*
X165030904Y-127944380D01*
X165935666Y-127944380D02*
X165935666Y-127420571D01*
X165888047Y-127325333D01*
X165792809Y-127277714D01*
X165602333Y-127277714D01*
X165507095Y-127325333D01*
X165935666Y-127896761D02*
X165840428Y-127944380D01*
X165602333Y-127944380D01*
X165507095Y-127896761D01*
X165459476Y-127801523D01*
X165459476Y-127706285D01*
X165507095Y-127611047D01*
X165602333Y-127563428D01*
X165840428Y-127563428D01*
X165935666Y-127515809D01*
X166840428Y-127277714D02*
X166840428Y-128087238D01*
X166792809Y-128182476D01*
X166745190Y-128230095D01*
X166649952Y-128277714D01*
X166507095Y-128277714D01*
X166411857Y-128230095D01*
X166840428Y-127896761D02*
X166745190Y-127944380D01*
X166554714Y-127944380D01*
X166459476Y-127896761D01*
X166411857Y-127849142D01*
X166364238Y-127753904D01*
X166364238Y-127468190D01*
X166411857Y-127372952D01*
X166459476Y-127325333D01*
X166554714Y-127277714D01*
X166745190Y-127277714D01*
X166840428Y-127325333D01*
X167602333Y-126944380D02*
X167602333Y-127658666D01*
X167554714Y-127801523D01*
X167459476Y-127896761D01*
X167316619Y-127944380D01*
X167221380Y-127944380D01*
X168507095Y-127944380D02*
X168507095Y-127420571D01*
X168459476Y-127325333D01*
X168364238Y-127277714D01*
X168173761Y-127277714D01*
X168078523Y-127325333D01*
X168507095Y-127896761D02*
X168411857Y-127944380D01*
X168173761Y-127944380D01*
X168078523Y-127896761D01*
X168030904Y-127801523D01*
X168030904Y-127706285D01*
X168078523Y-127611047D01*
X168173761Y-127563428D01*
X168411857Y-127563428D01*
X168507095Y-127515809D01*
X169411857Y-127896761D02*
X169316619Y-127944380D01*
X169126142Y-127944380D01*
X169030904Y-127896761D01*
X168983285Y-127849142D01*
X168935666Y-127753904D01*
X168935666Y-127468190D01*
X168983285Y-127372952D01*
X169030904Y-127325333D01*
X169126142Y-127277714D01*
X169316619Y-127277714D01*
X169411857Y-127325333D01*
X169840428Y-127944380D02*
X169840428Y-126944380D01*
X169935666Y-127563428D02*
X170221380Y-127944380D01*
X170221380Y-127277714D02*
X169840428Y-127658666D01*
X103033809Y-104194761D02*
X103176666Y-104242380D01*
X103414761Y-104242380D01*
X103510000Y-104194761D01*
X103557619Y-104147142D01*
X103605238Y-104051904D01*
X103605238Y-103956666D01*
X103557619Y-103861428D01*
X103510000Y-103813809D01*
X103414761Y-103766190D01*
X103224285Y-103718571D01*
X103129047Y-103670952D01*
X103081428Y-103623333D01*
X103033809Y-103528095D01*
X103033809Y-103432857D01*
X103081428Y-103337619D01*
X103129047Y-103290000D01*
X103224285Y-103242380D01*
X103462380Y-103242380D01*
X103605238Y-103290000D01*
X103986190Y-103956666D02*
X104462380Y-103956666D01*
X103890952Y-104242380D02*
X104224285Y-103242380D01*
X104557619Y-104242380D01*
X104748095Y-103242380D02*
X105319523Y-103242380D01*
X105033809Y-104242380D02*
X105033809Y-103242380D01*
X105605238Y-103956666D02*
X106081428Y-103956666D01*
X105510000Y-104242380D02*
X105843333Y-103242380D01*
X106176666Y-104242380D01*
X106271904Y-104337619D02*
X107033809Y-104337619D01*
X107271904Y-104242380D02*
X107271904Y-103242380D01*
X107652857Y-103242380D01*
X107748095Y-103290000D01*
X107795714Y-103337619D01*
X107843333Y-103432857D01*
X107843333Y-103575714D01*
X107795714Y-103670952D01*
X107748095Y-103718571D01*
X107652857Y-103766190D01*
X107271904Y-103766190D01*
X108176666Y-103242380D02*
X108414761Y-104242380D01*
X108605238Y-103528095D01*
X108795714Y-104242380D01*
X109033809Y-103242380D01*
X109986190Y-104242380D02*
X109652857Y-103766190D01*
X109414761Y-104242380D02*
X109414761Y-103242380D01*
X109795714Y-103242380D01*
X109890952Y-103290000D01*
X109938571Y-103337619D01*
X109986190Y-103432857D01*
X109986190Y-103575714D01*
X109938571Y-103670952D01*
X109890952Y-103718571D01*
X109795714Y-103766190D01*
X109414761Y-103766190D01*
X127060000Y-77692380D02*
X127060000Y-76692380D01*
X127060000Y-77168571D02*
X127631428Y-77168571D01*
X127631428Y-77692380D02*
X127631428Y-76692380D01*
X128107619Y-77692380D02*
X128107619Y-76692380D01*
X128345714Y-76692380D01*
X128488571Y-76740000D01*
X128583809Y-76835238D01*
X128631428Y-76930476D01*
X128679047Y-77120952D01*
X128679047Y-77263809D01*
X128631428Y-77454285D01*
X128583809Y-77549523D01*
X128488571Y-77644761D01*
X128345714Y-77692380D01*
X128107619Y-77692380D01*
X129107619Y-77692380D02*
X129107619Y-76692380D01*
X129440952Y-77406666D01*
X129774285Y-76692380D01*
X129774285Y-77692380D01*
X130250476Y-77692380D02*
X130250476Y-76692380D01*
X130488571Y-77787619D02*
X131250476Y-77787619D01*
X131488571Y-77692380D02*
X131488571Y-76692380D01*
X131917142Y-77692380D02*
X131917142Y-77168571D01*
X131869523Y-77073333D01*
X131774285Y-77025714D01*
X131631428Y-77025714D01*
X131536190Y-77073333D01*
X131488571Y-77120952D01*
X132774285Y-77644761D02*
X132679047Y-77692380D01*
X132488571Y-77692380D01*
X132393333Y-77644761D01*
X132345714Y-77549523D01*
X132345714Y-77168571D01*
X132393333Y-77073333D01*
X132488571Y-77025714D01*
X132679047Y-77025714D01*
X132774285Y-77073333D01*
X132821904Y-77168571D01*
X132821904Y-77263809D01*
X132345714Y-77359047D01*
X133679047Y-77692380D02*
X133679047Y-77168571D01*
X133631428Y-77073333D01*
X133536190Y-77025714D01*
X133345714Y-77025714D01*
X133250476Y-77073333D01*
X133679047Y-77644761D02*
X133583809Y-77692380D01*
X133345714Y-77692380D01*
X133250476Y-77644761D01*
X133202857Y-77549523D01*
X133202857Y-77454285D01*
X133250476Y-77359047D01*
X133345714Y-77311428D01*
X133583809Y-77311428D01*
X133679047Y-77263809D01*
X134583809Y-77692380D02*
X134583809Y-76692380D01*
X134583809Y-77644761D02*
X134488571Y-77692380D01*
X134298095Y-77692380D01*
X134202857Y-77644761D01*
X134155238Y-77597142D01*
X134107619Y-77501904D01*
X134107619Y-77216190D01*
X134155238Y-77120952D01*
X134202857Y-77073333D01*
X134298095Y-77025714D01*
X134488571Y-77025714D01*
X134583809Y-77073333D01*
X135440952Y-77644761D02*
X135345714Y-77692380D01*
X135155238Y-77692380D01*
X135060000Y-77644761D01*
X135012380Y-77549523D01*
X135012380Y-77168571D01*
X135060000Y-77073333D01*
X135155238Y-77025714D01*
X135345714Y-77025714D01*
X135440952Y-77073333D01*
X135488571Y-77168571D01*
X135488571Y-77263809D01*
X135012380Y-77359047D01*
X135917142Y-77692380D02*
X135917142Y-77025714D01*
X135917142Y-77216190D02*
X135964761Y-77120952D01*
X136012380Y-77073333D01*
X136107619Y-77025714D01*
X136202857Y-77025714D01*
X109482285Y-133024571D02*
X109148952Y-133024571D01*
X109148952Y-133548380D02*
X109148952Y-132548380D01*
X109625142Y-132548380D01*
X110434666Y-133548380D02*
X110434666Y-133024571D01*
X110387047Y-132929333D01*
X110291809Y-132881714D01*
X110101333Y-132881714D01*
X110006095Y-132929333D01*
X110434666Y-133500761D02*
X110339428Y-133548380D01*
X110101333Y-133548380D01*
X110006095Y-133500761D01*
X109958476Y-133405523D01*
X109958476Y-133310285D01*
X110006095Y-133215047D01*
X110101333Y-133167428D01*
X110339428Y-133167428D01*
X110434666Y-133119809D01*
X110910857Y-132881714D02*
X110910857Y-133548380D01*
X110910857Y-132976952D02*
X110958476Y-132929333D01*
X111053714Y-132881714D01*
X111196571Y-132881714D01*
X111291809Y-132929333D01*
X111339428Y-133024571D01*
X111339428Y-133548380D01*
X111577523Y-133643619D02*
X112339428Y-133643619D01*
X112577523Y-133548380D02*
X112577523Y-132548380D01*
X112958476Y-132548380D01*
X113053714Y-132596000D01*
X113101333Y-132643619D01*
X113148952Y-132738857D01*
X113148952Y-132881714D01*
X113101333Y-132976952D01*
X113053714Y-133024571D01*
X112958476Y-133072190D01*
X112577523Y-133072190D01*
X113482285Y-132548380D02*
X113720380Y-133548380D01*
X113910857Y-132834095D01*
X114101333Y-133548380D01*
X114339428Y-132548380D01*
X114720380Y-133548380D02*
X114720380Y-132548380D01*
X115053714Y-133262666D01*
X115387047Y-132548380D01*
X115387047Y-133548380D01*
D11*
X98324047Y-73184761D02*
X97657380Y-72232380D01*
X97181190Y-73184761D02*
X97181190Y-71184761D01*
X97943095Y-71184761D01*
X98133571Y-71280000D01*
X98228809Y-71375238D01*
X98324047Y-71565714D01*
X98324047Y-71851428D01*
X98228809Y-72041904D01*
X98133571Y-72137142D01*
X97943095Y-72232380D01*
X97181190Y-72232380D01*
X99181190Y-73184761D02*
X99181190Y-71184761D01*
X99943095Y-71184761D01*
X100133571Y-71280000D01*
X100228809Y-71375238D01*
X100324047Y-71565714D01*
X100324047Y-71851428D01*
X100228809Y-72041904D01*
X100133571Y-72137142D01*
X99943095Y-72232380D01*
X99181190Y-72232380D01*
X101181190Y-73184761D02*
X101181190Y-71851428D01*
X101181190Y-71184761D02*
X101085952Y-71280000D01*
X101181190Y-71375238D01*
X101276428Y-71280000D01*
X101181190Y-71184761D01*
X101181190Y-71375238D01*
X104800238Y-72994285D02*
X104705000Y-73089523D01*
X104419285Y-73184761D01*
X104228809Y-73184761D01*
X103943095Y-73089523D01*
X103752619Y-72899047D01*
X103657380Y-72708571D01*
X103562142Y-72327619D01*
X103562142Y-72041904D01*
X103657380Y-71660952D01*
X103752619Y-71470476D01*
X103943095Y-71280000D01*
X104228809Y-71184761D01*
X104419285Y-71184761D01*
X104705000Y-71280000D01*
X104800238Y-71375238D01*
X105657380Y-73184761D02*
X105657380Y-71184761D01*
X106324047Y-72613333D01*
X106990714Y-71184761D01*
X106990714Y-73184761D01*
X108800238Y-71851428D02*
X108800238Y-73184761D01*
X108324047Y-71089523D02*
X107847857Y-72518095D01*
X109085952Y-72518095D01*
X111371666Y-73184761D02*
X111371666Y-71184761D01*
X112514523Y-73184761D01*
X112514523Y-71184761D01*
X113371666Y-72613333D02*
X114324047Y-72613333D01*
X113181190Y-73184761D02*
X113847857Y-71184761D01*
X114514523Y-73184761D01*
X115085952Y-73089523D02*
X115371666Y-73184761D01*
X115847857Y-73184761D01*
X116038333Y-73089523D01*
X116133571Y-72994285D01*
X116228809Y-72803809D01*
X116228809Y-72613333D01*
X116133571Y-72422857D01*
X116038333Y-72327619D01*
X115847857Y-72232380D01*
X115466904Y-72137142D01*
X115276428Y-72041904D01*
X115181190Y-71946666D01*
X115085952Y-71756190D01*
X115085952Y-71565714D01*
X115181190Y-71375238D01*
X115276428Y-71280000D01*
X115466904Y-71184761D01*
X115943095Y-71184761D01*
X116228809Y-71280000D01*
X97181190Y-76404761D02*
X97181190Y-75071428D01*
X97181190Y-75452380D02*
X97276428Y-75261904D01*
X97371666Y-75166666D01*
X97562142Y-75071428D01*
X97752619Y-75071428D01*
X99181190Y-76309523D02*
X98990714Y-76404761D01*
X98609761Y-76404761D01*
X98419285Y-76309523D01*
X98324047Y-76119047D01*
X98324047Y-75357142D01*
X98419285Y-75166666D01*
X98609761Y-75071428D01*
X98990714Y-75071428D01*
X99181190Y-75166666D01*
X99276428Y-75357142D01*
X99276428Y-75547619D01*
X98324047Y-75738095D01*
X99943095Y-75071428D02*
X100419285Y-76404761D01*
X100895476Y-75071428D01*
X102705000Y-76404761D02*
X101562142Y-76404761D01*
X102133571Y-76404761D02*
X102133571Y-74404761D01*
X101943095Y-74690476D01*
X101752619Y-74880952D01*
X101562142Y-74976190D01*
D10*
X110482380Y-126902857D02*
X110482380Y-126283809D01*
X110863333Y-126617142D01*
X110863333Y-126474285D01*
X110910952Y-126379047D01*
X110958571Y-126331428D01*
X111053809Y-126283809D01*
X111291904Y-126283809D01*
X111387142Y-126331428D01*
X111434761Y-126379047D01*
X111482380Y-126474285D01*
X111482380Y-126760000D01*
X111434761Y-126855238D01*
X111387142Y-126902857D01*
X110482380Y-125998095D02*
X111482380Y-125664761D01*
X110482380Y-125331428D01*
X110482380Y-125093333D02*
X110482380Y-124474285D01*
X110863333Y-124807619D01*
X110863333Y-124664761D01*
X110910952Y-124569523D01*
X110958571Y-124521904D01*
X111053809Y-124474285D01*
X111291904Y-124474285D01*
X111387142Y-124521904D01*
X111434761Y-124569523D01*
X111482380Y-124664761D01*
X111482380Y-124950476D01*
X111434761Y-125045714D01*
X111387142Y-125093333D01*
X111577619Y-124283809D02*
X111577619Y-123521904D01*
X110958571Y-122950476D02*
X111006190Y-122807619D01*
X111053809Y-122760000D01*
X111149047Y-122712380D01*
X111291904Y-122712380D01*
X111387142Y-122760000D01*
X111434761Y-122807619D01*
X111482380Y-122902857D01*
X111482380Y-123283809D01*
X110482380Y-123283809D01*
X110482380Y-122950476D01*
X110530000Y-122855238D01*
X110577619Y-122807619D01*
X110672857Y-122760000D01*
X110768095Y-122760000D01*
X110863333Y-122807619D01*
X110910952Y-122855238D01*
X110958571Y-122950476D01*
X110958571Y-123283809D01*
X110482380Y-122283809D02*
X111291904Y-122283809D01*
X111387142Y-122236190D01*
X111434761Y-122188571D01*
X111482380Y-122093333D01*
X111482380Y-121902857D01*
X111434761Y-121807619D01*
X111387142Y-121760000D01*
X111291904Y-121712380D01*
X110482380Y-121712380D01*
X111387142Y-120664761D02*
X111434761Y-120712380D01*
X111482380Y-120855238D01*
X111482380Y-120950476D01*
X111434761Y-121093333D01*
X111339523Y-121188571D01*
X111244285Y-121236190D01*
X111053809Y-121283809D01*
X110910952Y-121283809D01*
X110720476Y-121236190D01*
X110625238Y-121188571D01*
X110530000Y-121093333D01*
X110482380Y-120950476D01*
X110482380Y-120855238D01*
X110530000Y-120712380D01*
X110577619Y-120664761D01*
X111482380Y-120236190D02*
X110482380Y-120236190D01*
X111482380Y-119664761D02*
X110910952Y-120093333D01*
X110482380Y-119664761D02*
X111053809Y-120236190D01*
X105233333Y-79332380D02*
X105804761Y-79332380D01*
X105519047Y-80332380D02*
X105519047Y-79332380D01*
X106519047Y-80284761D02*
X106423809Y-80332380D01*
X106233333Y-80332380D01*
X106138095Y-80284761D01*
X106090476Y-80189523D01*
X106090476Y-79808571D01*
X106138095Y-79713333D01*
X106233333Y-79665714D01*
X106423809Y-79665714D01*
X106519047Y-79713333D01*
X106566666Y-79808571D01*
X106566666Y-79903809D01*
X106090476Y-79999047D01*
X106995238Y-80332380D02*
X106995238Y-79665714D01*
X106995238Y-79760952D02*
X107042857Y-79713333D01*
X107138095Y-79665714D01*
X107280952Y-79665714D01*
X107376190Y-79713333D01*
X107423809Y-79808571D01*
X107423809Y-80332380D01*
X107423809Y-79808571D02*
X107471428Y-79713333D01*
X107566666Y-79665714D01*
X107709523Y-79665714D01*
X107804761Y-79713333D01*
X107852380Y-79808571D01*
X107852380Y-80332380D01*
X108328571Y-79665714D02*
X108328571Y-80665714D01*
X108328571Y-79713333D02*
X108423809Y-79665714D01*
X108614285Y-79665714D01*
X108709523Y-79713333D01*
X108757142Y-79760952D01*
X108804761Y-79856190D01*
X108804761Y-80141904D01*
X108757142Y-80237142D01*
X108709523Y-80284761D01*
X108614285Y-80332380D01*
X108423809Y-80332380D01*
X108328571Y-80284761D01*
X108995238Y-80427619D02*
X109757142Y-80427619D01*
X109947619Y-80284761D02*
X110042857Y-80332380D01*
X110233333Y-80332380D01*
X110328571Y-80284761D01*
X110376190Y-80189523D01*
X110376190Y-80141904D01*
X110328571Y-80046666D01*
X110233333Y-79999047D01*
X110090476Y-79999047D01*
X109995238Y-79951428D01*
X109947619Y-79856190D01*
X109947619Y-79808571D01*
X109995238Y-79713333D01*
X110090476Y-79665714D01*
X110233333Y-79665714D01*
X110328571Y-79713333D01*
X111185714Y-80284761D02*
X111090476Y-80332380D01*
X110900000Y-80332380D01*
X110804761Y-80284761D01*
X110757142Y-80189523D01*
X110757142Y-79808571D01*
X110804761Y-79713333D01*
X110900000Y-79665714D01*
X111090476Y-79665714D01*
X111185714Y-79713333D01*
X111233333Y-79808571D01*
X111233333Y-79903809D01*
X110757142Y-79999047D01*
X111661904Y-79665714D02*
X111661904Y-80332380D01*
X111661904Y-79760952D02*
X111709523Y-79713333D01*
X111804761Y-79665714D01*
X111947619Y-79665714D01*
X112042857Y-79713333D01*
X112090476Y-79808571D01*
X112090476Y-80332380D01*
X112519047Y-80284761D02*
X112614285Y-80332380D01*
X112804761Y-80332380D01*
X112900000Y-80284761D01*
X112947619Y-80189523D01*
X112947619Y-80141904D01*
X112900000Y-80046666D01*
X112804761Y-79999047D01*
X112661904Y-79999047D01*
X112566666Y-79951428D01*
X112519047Y-79856190D01*
X112519047Y-79808571D01*
X112566666Y-79713333D01*
X112661904Y-79665714D01*
X112804761Y-79665714D01*
X112900000Y-79713333D01*
X113519047Y-80332380D02*
X113423809Y-80284761D01*
X113376190Y-80237142D01*
X113328571Y-80141904D01*
X113328571Y-79856190D01*
X113376190Y-79760952D01*
X113423809Y-79713333D01*
X113519047Y-79665714D01*
X113661904Y-79665714D01*
X113757142Y-79713333D01*
X113804761Y-79760952D01*
X113852380Y-79856190D01*
X113852380Y-80141904D01*
X113804761Y-80237142D01*
X113757142Y-80284761D01*
X113661904Y-80332380D01*
X113519047Y-80332380D01*
X114280952Y-80332380D02*
X114280952Y-79665714D01*
X114280952Y-79856190D02*
X114328571Y-79760952D01*
X114376190Y-79713333D01*
X114471428Y-79665714D01*
X114566666Y-79665714D01*
D11*
X124848571Y-97504285D02*
X124753333Y-97599523D01*
X124467619Y-97694761D01*
X124277142Y-97694761D01*
X123991428Y-97599523D01*
X123800952Y-97409047D01*
X123705714Y-97218571D01*
X123610476Y-96837619D01*
X123610476Y-96551904D01*
X123705714Y-96170952D01*
X123800952Y-95980476D01*
X123991428Y-95790000D01*
X124277142Y-95694761D01*
X124467619Y-95694761D01*
X124753333Y-95790000D01*
X124848571Y-95885238D01*
X125991428Y-97694761D02*
X125800952Y-97599523D01*
X125705714Y-97504285D01*
X125610476Y-97313809D01*
X125610476Y-96742380D01*
X125705714Y-96551904D01*
X125800952Y-96456666D01*
X125991428Y-96361428D01*
X126277142Y-96361428D01*
X126467619Y-96456666D01*
X126562857Y-96551904D01*
X126658095Y-96742380D01*
X126658095Y-97313809D01*
X126562857Y-97504285D01*
X126467619Y-97599523D01*
X126277142Y-97694761D01*
X125991428Y-97694761D01*
X127515238Y-97694761D02*
X127515238Y-96361428D01*
X127515238Y-96551904D02*
X127610476Y-96456666D01*
X127800952Y-96361428D01*
X128086666Y-96361428D01*
X128277142Y-96456666D01*
X128372380Y-96647142D01*
X128372380Y-97694761D01*
X128372380Y-96647142D02*
X128467619Y-96456666D01*
X128658095Y-96361428D01*
X128943809Y-96361428D01*
X129134285Y-96456666D01*
X129229523Y-96647142D01*
X129229523Y-97694761D01*
X130181904Y-96361428D02*
X130181904Y-98361428D01*
X130181904Y-96456666D02*
X130372380Y-96361428D01*
X130753333Y-96361428D01*
X130943809Y-96456666D01*
X131039047Y-96551904D01*
X131134285Y-96742380D01*
X131134285Y-97313809D01*
X131039047Y-97504285D01*
X130943809Y-97599523D01*
X130753333Y-97694761D01*
X130372380Y-97694761D01*
X130181904Y-97599523D01*
X132848571Y-96361428D02*
X132848571Y-97694761D01*
X131991428Y-96361428D02*
X131991428Y-97409047D01*
X132086666Y-97599523D01*
X132277142Y-97694761D01*
X132562857Y-97694761D01*
X132753333Y-97599523D01*
X132848571Y-97504285D01*
X133515238Y-96361428D02*
X134277142Y-96361428D01*
X133800952Y-95694761D02*
X133800952Y-97409047D01*
X133896190Y-97599523D01*
X134086666Y-97694761D01*
X134277142Y-97694761D01*
X135705714Y-97599523D02*
X135515238Y-97694761D01*
X135134285Y-97694761D01*
X134943809Y-97599523D01*
X134848571Y-97409047D01*
X134848571Y-96647142D01*
X134943809Y-96456666D01*
X135134285Y-96361428D01*
X135515238Y-96361428D01*
X135705714Y-96456666D01*
X135800952Y-96647142D01*
X135800952Y-96837619D01*
X134848571Y-97028095D01*
X138181904Y-97694761D02*
X138181904Y-95694761D01*
X138848571Y-97123333D01*
X139515238Y-95694761D01*
X139515238Y-97694761D01*
X140753333Y-97694761D02*
X140562857Y-97599523D01*
X140467619Y-97504285D01*
X140372380Y-97313809D01*
X140372380Y-96742380D01*
X140467619Y-96551904D01*
X140562857Y-96456666D01*
X140753333Y-96361428D01*
X141039047Y-96361428D01*
X141229523Y-96456666D01*
X141324761Y-96551904D01*
X141420000Y-96742380D01*
X141420000Y-97313809D01*
X141324761Y-97504285D01*
X141229523Y-97599523D01*
X141039047Y-97694761D01*
X140753333Y-97694761D01*
X143134285Y-97694761D02*
X143134285Y-95694761D01*
X143134285Y-97599523D02*
X142943809Y-97694761D01*
X142562857Y-97694761D01*
X142372380Y-97599523D01*
X142277142Y-97504285D01*
X142181904Y-97313809D01*
X142181904Y-96742380D01*
X142277142Y-96551904D01*
X142372380Y-96456666D01*
X142562857Y-96361428D01*
X142943809Y-96361428D01*
X143134285Y-96456666D01*
X144943809Y-96361428D02*
X144943809Y-97694761D01*
X144086666Y-96361428D02*
X144086666Y-97409047D01*
X144181904Y-97599523D01*
X144372380Y-97694761D01*
X144658095Y-97694761D01*
X144848571Y-97599523D01*
X144943809Y-97504285D01*
X146181904Y-97694761D02*
X145991428Y-97599523D01*
X145896190Y-97409047D01*
X145896190Y-95694761D01*
X147705714Y-97599523D02*
X147515238Y-97694761D01*
X147134285Y-97694761D01*
X146943809Y-97599523D01*
X146848571Y-97409047D01*
X146848571Y-96647142D01*
X146943809Y-96456666D01*
X147134285Y-96361428D01*
X147515238Y-96361428D01*
X147705714Y-96456666D01*
X147800952Y-96647142D01*
X147800952Y-96837619D01*
X146848571Y-97028095D01*
X151039047Y-96361428D02*
X151039047Y-97694761D01*
X150562857Y-95599523D02*
X150086666Y-97028095D01*
X151324761Y-97028095D01*
D10*
X149479523Y-77426666D02*
X149955714Y-77426666D01*
X149384285Y-77712380D02*
X149717619Y-76712380D01*
X150050952Y-77712380D01*
X150812857Y-77664761D02*
X150717619Y-77712380D01*
X150527142Y-77712380D01*
X150431904Y-77664761D01*
X150384285Y-77617142D01*
X150336666Y-77521904D01*
X150336666Y-77236190D01*
X150384285Y-77140952D01*
X150431904Y-77093333D01*
X150527142Y-77045714D01*
X150717619Y-77045714D01*
X150812857Y-77093333D01*
X151098571Y-77045714D02*
X151479523Y-77045714D01*
X151241428Y-76712380D02*
X151241428Y-77569523D01*
X151289047Y-77664761D01*
X151384285Y-77712380D01*
X151479523Y-77712380D01*
X151574761Y-77807619D02*
X152336666Y-77807619D01*
X153050952Y-77712380D02*
X152574761Y-77712380D01*
X152574761Y-76712380D01*
X153384285Y-77188571D02*
X153717619Y-77188571D01*
X153860476Y-77712380D02*
X153384285Y-77712380D01*
X153384285Y-76712380D01*
X153860476Y-76712380D01*
X154289047Y-77712380D02*
X154289047Y-76712380D01*
X154527142Y-76712380D01*
X154670000Y-76760000D01*
X154765238Y-76855238D01*
X154812857Y-76950476D01*
X154860476Y-77140952D01*
X154860476Y-77283809D01*
X154812857Y-77474285D01*
X154765238Y-77569523D01*
X154670000Y-77664761D01*
X154527142Y-77712380D01*
X154289047Y-77712380D01*
X156472761Y-74572761D02*
X156615619Y-74620380D01*
X156853714Y-74620380D01*
X156948952Y-74572761D01*
X156996571Y-74525142D01*
X157044190Y-74429904D01*
X157044190Y-74334666D01*
X156996571Y-74239428D01*
X156948952Y-74191809D01*
X156853714Y-74144190D01*
X156663238Y-74096571D01*
X156568000Y-74048952D01*
X156520380Y-74001333D01*
X156472761Y-73906095D01*
X156472761Y-73810857D01*
X156520380Y-73715619D01*
X156568000Y-73668000D01*
X156663238Y-73620380D01*
X156901333Y-73620380D01*
X157044190Y-73668000D01*
X157615619Y-74620380D02*
X157520380Y-74572761D01*
X157472761Y-74477523D01*
X157472761Y-73620380D01*
X158425142Y-74620380D02*
X158425142Y-74096571D01*
X158377523Y-74001333D01*
X158282285Y-73953714D01*
X158091809Y-73953714D01*
X157996571Y-74001333D01*
X158425142Y-74572761D02*
X158329904Y-74620380D01*
X158091809Y-74620380D01*
X157996571Y-74572761D01*
X157948952Y-74477523D01*
X157948952Y-74382285D01*
X157996571Y-74287047D01*
X158091809Y-74239428D01*
X158329904Y-74239428D01*
X158425142Y-74191809D01*
X158806095Y-73953714D02*
X159044190Y-74620380D01*
X159282285Y-73953714D01*
X160044190Y-74572761D02*
X159948952Y-74620380D01*
X159758476Y-74620380D01*
X159663238Y-74572761D01*
X159615619Y-74477523D01*
X159615619Y-74096571D01*
X159663238Y-74001333D01*
X159758476Y-73953714D01*
X159948952Y-73953714D01*
X160044190Y-74001333D01*
X160091809Y-74096571D01*
X160091809Y-74191809D01*
X159615619Y-74287047D01*
X160282285Y-74715619D02*
X161044190Y-74715619D01*
X161282285Y-73620380D02*
X161282285Y-74429904D01*
X161329904Y-74525142D01*
X161377523Y-74572761D01*
X161472761Y-74620380D01*
X161663238Y-74620380D01*
X161758476Y-74572761D01*
X161806095Y-74525142D01*
X161853714Y-74429904D01*
X161853714Y-73620380D01*
X162282285Y-74572761D02*
X162425142Y-74620380D01*
X162663238Y-74620380D01*
X162758476Y-74572761D01*
X162806095Y-74525142D01*
X162853714Y-74429904D01*
X162853714Y-74334666D01*
X162806095Y-74239428D01*
X162758476Y-74191809D01*
X162663238Y-74144190D01*
X162472761Y-74096571D01*
X162377523Y-74048952D01*
X162329904Y-74001333D01*
X162282285Y-73906095D01*
X162282285Y-73810857D01*
X162329904Y-73715619D01*
X162377523Y-73668000D01*
X162472761Y-73620380D01*
X162710857Y-73620380D01*
X162853714Y-73668000D01*
X163615619Y-74096571D02*
X163758476Y-74144190D01*
X163806095Y-74191809D01*
X163853714Y-74287047D01*
X163853714Y-74429904D01*
X163806095Y-74525142D01*
X163758476Y-74572761D01*
X163663238Y-74620380D01*
X163282285Y-74620380D01*
X163282285Y-73620380D01*
X163615619Y-73620380D01*
X163710857Y-73668000D01*
X163758476Y-73715619D01*
X163806095Y-73810857D01*
X163806095Y-73906095D01*
X163758476Y-74001333D01*
X163710857Y-74048952D01*
X163615619Y-74096571D01*
X163282285Y-74096571D01*
X164044190Y-74715619D02*
X164806095Y-74715619D01*
X165044190Y-74620380D02*
X165044190Y-73620380D01*
X165472761Y-74620380D02*
X165472761Y-74096571D01*
X165425142Y-74001333D01*
X165329904Y-73953714D01*
X165187047Y-73953714D01*
X165091809Y-74001333D01*
X165044190Y-74048952D01*
X166329904Y-74572761D02*
X166234666Y-74620380D01*
X166044190Y-74620380D01*
X165948952Y-74572761D01*
X165901333Y-74477523D01*
X165901333Y-74096571D01*
X165948952Y-74001333D01*
X166044190Y-73953714D01*
X166234666Y-73953714D01*
X166329904Y-74001333D01*
X166377523Y-74096571D01*
X166377523Y-74191809D01*
X165901333Y-74287047D01*
X167234666Y-74620380D02*
X167234666Y-74096571D01*
X167187047Y-74001333D01*
X167091809Y-73953714D01*
X166901333Y-73953714D01*
X166806095Y-74001333D01*
X167234666Y-74572761D02*
X167139428Y-74620380D01*
X166901333Y-74620380D01*
X166806095Y-74572761D01*
X166758476Y-74477523D01*
X166758476Y-74382285D01*
X166806095Y-74287047D01*
X166901333Y-74239428D01*
X167139428Y-74239428D01*
X167234666Y-74191809D01*
X168139428Y-74620380D02*
X168139428Y-73620380D01*
X168139428Y-74572761D02*
X168044190Y-74620380D01*
X167853714Y-74620380D01*
X167758476Y-74572761D01*
X167710857Y-74525142D01*
X167663238Y-74429904D01*
X167663238Y-74144190D01*
X167710857Y-74048952D01*
X167758476Y-74001333D01*
X167853714Y-73953714D01*
X168044190Y-73953714D01*
X168139428Y-74001333D01*
X168996571Y-74572761D02*
X168901333Y-74620380D01*
X168710857Y-74620380D01*
X168615619Y-74572761D01*
X168568000Y-74477523D01*
X168568000Y-74096571D01*
X168615619Y-74001333D01*
X168710857Y-73953714D01*
X168901333Y-73953714D01*
X168996571Y-74001333D01*
X169044190Y-74096571D01*
X169044190Y-74191809D01*
X168568000Y-74287047D01*
X169472761Y-74620380D02*
X169472761Y-73953714D01*
X169472761Y-74144190D02*
X169520380Y-74048952D01*
X169568000Y-74001333D01*
X169663238Y-73953714D01*
X169758476Y-73953714D01*
X90998095Y-79362380D02*
X90998095Y-78362380D01*
X91379047Y-78362380D01*
X91474285Y-78410000D01*
X91521904Y-78457619D01*
X91569523Y-78552857D01*
X91569523Y-78695714D01*
X91521904Y-78790952D01*
X91474285Y-78838571D01*
X91379047Y-78886190D01*
X90998095Y-78886190D01*
X92569523Y-79267142D02*
X92521904Y-79314761D01*
X92379047Y-79362380D01*
X92283809Y-79362380D01*
X92140952Y-79314761D01*
X92045714Y-79219523D01*
X91998095Y-79124285D01*
X91950476Y-78933809D01*
X91950476Y-78790952D01*
X91998095Y-78600476D01*
X92045714Y-78505238D01*
X92140952Y-78410000D01*
X92283809Y-78362380D01*
X92379047Y-78362380D01*
X92521904Y-78410000D01*
X92569523Y-78457619D01*
X92998095Y-79362380D02*
X92998095Y-78362380D01*
X93855238Y-79314761D02*
X93760000Y-79362380D01*
X93569523Y-79362380D01*
X93474285Y-79314761D01*
X93426666Y-79219523D01*
X93426666Y-78838571D01*
X93474285Y-78743333D01*
X93569523Y-78695714D01*
X93760000Y-78695714D01*
X93855238Y-78743333D01*
X93902857Y-78838571D01*
X93902857Y-78933809D01*
X93426666Y-79029047D01*
X95521904Y-78695714D02*
X95521904Y-79505238D01*
X95474285Y-79600476D01*
X95426666Y-79648095D01*
X95331428Y-79695714D01*
X95188571Y-79695714D01*
X95093333Y-79648095D01*
X95521904Y-79314761D02*
X95426666Y-79362380D01*
X95236190Y-79362380D01*
X95140952Y-79314761D01*
X95093333Y-79267142D01*
X95045714Y-79171904D01*
X95045714Y-78886190D01*
X95093333Y-78790952D01*
X95140952Y-78743333D01*
X95236190Y-78695714D01*
X95426666Y-78695714D01*
X95521904Y-78743333D01*
X96379047Y-79314761D02*
X96283809Y-79362380D01*
X96093333Y-79362380D01*
X95998095Y-79314761D01*
X95950476Y-79219523D01*
X95950476Y-78838571D01*
X95998095Y-78743333D01*
X96093333Y-78695714D01*
X96283809Y-78695714D01*
X96379047Y-78743333D01*
X96426666Y-78838571D01*
X96426666Y-78933809D01*
X95950476Y-79029047D01*
X96855238Y-78695714D02*
X96855238Y-79362380D01*
X96855238Y-78790952D02*
X96902857Y-78743333D01*
X96998095Y-78695714D01*
X97140952Y-78695714D01*
X97236190Y-78743333D01*
X97283809Y-78838571D01*
X97283809Y-79362380D01*
X97712380Y-78457619D02*
X97760000Y-78410000D01*
X97855238Y-78362380D01*
X98093333Y-78362380D01*
X98188571Y-78410000D01*
X98236190Y-78457619D01*
X98283809Y-78552857D01*
X98283809Y-78648095D01*
X98236190Y-78790952D01*
X97664761Y-79362380D01*
X98283809Y-79362380D01*
X99379047Y-79362380D02*
X99902857Y-78695714D01*
X99379047Y-78695714D02*
X99902857Y-79362380D01*
X100807619Y-79362380D02*
X100236190Y-79362380D01*
X100521904Y-79362380D02*
X100521904Y-78362380D01*
X100426666Y-78505238D01*
X100331428Y-78600476D01*
X100236190Y-78648095D01*
D12*
X154875714Y-116874285D02*
X154875714Y-117040952D01*
X154613809Y-117112380D02*
X154613809Y-116874285D01*
X155113809Y-116874285D01*
X155113809Y-117112380D01*
X154637619Y-117302857D02*
X154613809Y-117374285D01*
X154613809Y-117493333D01*
X154637619Y-117540952D01*
X154661428Y-117564761D01*
X154709047Y-117588571D01*
X154756666Y-117588571D01*
X154804285Y-117564761D01*
X154828095Y-117540952D01*
X154851904Y-117493333D01*
X154875714Y-117398095D01*
X154899523Y-117350476D01*
X154923333Y-117326666D01*
X154970952Y-117302857D01*
X155018571Y-117302857D01*
X155066190Y-117326666D01*
X155090000Y-117350476D01*
X155113809Y-117398095D01*
X155113809Y-117517142D01*
X155090000Y-117588571D01*
X154613809Y-117802857D02*
X155113809Y-117802857D01*
X155113809Y-117921904D01*
X155090000Y-117993333D01*
X155042380Y-118040952D01*
X154994761Y-118064761D01*
X154899523Y-118088571D01*
X154828095Y-118088571D01*
X154732857Y-118064761D01*
X154685238Y-118040952D01*
X154637619Y-117993333D01*
X154613809Y-117921904D01*
X154613809Y-117802857D01*
X154566190Y-118183809D02*
X154566190Y-118564761D01*
X154637619Y-118660000D02*
X154613809Y-118707619D01*
X154613809Y-118802857D01*
X154637619Y-118850476D01*
X154685238Y-118874285D01*
X154709047Y-118874285D01*
X154756666Y-118850476D01*
X154780476Y-118802857D01*
X154780476Y-118731428D01*
X154804285Y-118683809D01*
X154851904Y-118660000D01*
X154875714Y-118660000D01*
X154923333Y-118683809D01*
X154947142Y-118731428D01*
X154947142Y-118802857D01*
X154923333Y-118850476D01*
X154613809Y-119088571D02*
X154947142Y-119088571D01*
X155113809Y-119088571D02*
X155090000Y-119064761D01*
X155066190Y-119088571D01*
X155090000Y-119112380D01*
X155113809Y-119088571D01*
X155066190Y-119088571D01*
X154947142Y-119326666D02*
X154613809Y-119326666D01*
X154899523Y-119326666D02*
X154923333Y-119350476D01*
X154947142Y-119398095D01*
X154947142Y-119469523D01*
X154923333Y-119517142D01*
X154875714Y-119540952D01*
X154613809Y-119540952D01*
X154613809Y-119779047D02*
X155113809Y-119779047D01*
X154804285Y-119826666D02*
X154613809Y-119969523D01*
X154947142Y-119969523D02*
X154756666Y-119779047D01*
X164326285Y-75910285D02*
X164492952Y-75910285D01*
X164564380Y-76172190D02*
X164326285Y-76172190D01*
X164326285Y-75672190D01*
X164564380Y-75672190D01*
X164754857Y-76148380D02*
X164826285Y-76172190D01*
X164945333Y-76172190D01*
X164992952Y-76148380D01*
X165016761Y-76124571D01*
X165040571Y-76076952D01*
X165040571Y-76029333D01*
X165016761Y-75981714D01*
X164992952Y-75957904D01*
X164945333Y-75934095D01*
X164850095Y-75910285D01*
X164802476Y-75886476D01*
X164778666Y-75862666D01*
X164754857Y-75815047D01*
X164754857Y-75767428D01*
X164778666Y-75719809D01*
X164802476Y-75696000D01*
X164850095Y-75672190D01*
X164969142Y-75672190D01*
X165040571Y-75696000D01*
X165254857Y-76172190D02*
X165254857Y-75672190D01*
X165373904Y-75672190D01*
X165445333Y-75696000D01*
X165492952Y-75743619D01*
X165516761Y-75791238D01*
X165540571Y-75886476D01*
X165540571Y-75957904D01*
X165516761Y-76053142D01*
X165492952Y-76100761D01*
X165445333Y-76148380D01*
X165373904Y-76172190D01*
X165254857Y-76172190D01*
X165635809Y-76219809D02*
X166016761Y-76219809D01*
X166112000Y-76148380D02*
X166159619Y-76172190D01*
X166254857Y-76172190D01*
X166302476Y-76148380D01*
X166326285Y-76100761D01*
X166326285Y-76076952D01*
X166302476Y-76029333D01*
X166254857Y-76005523D01*
X166183428Y-76005523D01*
X166135809Y-75981714D01*
X166112000Y-75934095D01*
X166112000Y-75910285D01*
X166135809Y-75862666D01*
X166183428Y-75838857D01*
X166254857Y-75838857D01*
X166302476Y-75862666D01*
X166540571Y-76172190D02*
X166540571Y-75838857D01*
X166540571Y-75672190D02*
X166516761Y-75696000D01*
X166540571Y-75719809D01*
X166564380Y-75696000D01*
X166540571Y-75672190D01*
X166540571Y-75719809D01*
X166778666Y-75838857D02*
X166778666Y-76172190D01*
X166778666Y-75886476D02*
X166802476Y-75862666D01*
X166850095Y-75838857D01*
X166921523Y-75838857D01*
X166969142Y-75862666D01*
X166992952Y-75910285D01*
X166992952Y-76172190D01*
X167231047Y-76172190D02*
X167231047Y-75672190D01*
X167278666Y-75981714D02*
X167421523Y-76172190D01*
X167421523Y-75838857D02*
X167231047Y-76029333D01*
X106055714Y-130714285D02*
X105889047Y-130714285D01*
X105889047Y-130976190D02*
X105889047Y-130476190D01*
X106127142Y-130476190D01*
X106531904Y-130976190D02*
X106531904Y-130714285D01*
X106508095Y-130666666D01*
X106460476Y-130642857D01*
X106365238Y-130642857D01*
X106317619Y-130666666D01*
X106531904Y-130952380D02*
X106484285Y-130976190D01*
X106365238Y-130976190D01*
X106317619Y-130952380D01*
X106293809Y-130904761D01*
X106293809Y-130857142D01*
X106317619Y-130809523D01*
X106365238Y-130785714D01*
X106484285Y-130785714D01*
X106531904Y-130761904D01*
X106770000Y-130642857D02*
X106770000Y-130976190D01*
X106770000Y-130690476D02*
X106793809Y-130666666D01*
X106841428Y-130642857D01*
X106912857Y-130642857D01*
X106960476Y-130666666D01*
X106984285Y-130714285D01*
X106984285Y-130976190D01*
X107103333Y-131023809D02*
X107484285Y-131023809D01*
X107817619Y-130952380D02*
X107770000Y-130976190D01*
X107674761Y-130976190D01*
X107627142Y-130952380D01*
X107603333Y-130928571D01*
X107579523Y-130880952D01*
X107579523Y-130738095D01*
X107603333Y-130690476D01*
X107627142Y-130666666D01*
X107674761Y-130642857D01*
X107770000Y-130642857D01*
X107817619Y-130666666D01*
X107960476Y-130642857D02*
X108150952Y-130642857D01*
X108031904Y-130476190D02*
X108031904Y-130904761D01*
X108055714Y-130952380D01*
X108103333Y-130976190D01*
X108150952Y-130976190D01*
X108317619Y-130976190D02*
X108317619Y-130642857D01*
X108317619Y-130738095D02*
X108341428Y-130690476D01*
X108365238Y-130666666D01*
X108412857Y-130642857D01*
X108460476Y-130642857D01*
X108698571Y-130976190D02*
X108650952Y-130952380D01*
X108627142Y-130904761D01*
X108627142Y-130476190D01*
D10*
X166838380Y-83494380D02*
X166838380Y-83303904D01*
X166886000Y-83208666D01*
X166981238Y-83113428D01*
X167171714Y-83065809D01*
X167505047Y-83065809D01*
X167695523Y-83113428D01*
X167790761Y-83208666D01*
X167838380Y-83303904D01*
X167838380Y-83494380D01*
X167790761Y-83589619D01*
X167695523Y-83684857D01*
X167505047Y-83732476D01*
X167171714Y-83732476D01*
X166981238Y-83684857D01*
X166886000Y-83589619D01*
X166838380Y-83494380D01*
X167838380Y-82161047D02*
X167838380Y-82637238D01*
X166838380Y-82637238D01*
X167314571Y-81827714D02*
X167314571Y-81494380D01*
X167838380Y-81351523D02*
X167838380Y-81827714D01*
X166838380Y-81827714D01*
X166838380Y-81351523D01*
X167838380Y-80922952D02*
X166838380Y-80922952D01*
X166838380Y-80684857D01*
X166886000Y-80542000D01*
X166981238Y-80446761D01*
X167076476Y-80399142D01*
X167266952Y-80351523D01*
X167409809Y-80351523D01*
X167600285Y-80399142D01*
X167695523Y-80446761D01*
X167790761Y-80542000D01*
X167838380Y-80684857D01*
X167838380Y-80922952D01*
X103113809Y-112502380D02*
X103113809Y-111502380D01*
X103494761Y-111502380D01*
X103590000Y-111550000D01*
X103637619Y-111597619D01*
X103685238Y-111692857D01*
X103685238Y-111835714D01*
X103637619Y-111930952D01*
X103590000Y-111978571D01*
X103494761Y-112026190D01*
X103113809Y-112026190D01*
X104018571Y-111502380D02*
X104256666Y-112502380D01*
X104447142Y-111788095D01*
X104637619Y-112502380D01*
X104875714Y-111502380D01*
X105828095Y-112502380D02*
X105494761Y-112026190D01*
X105256666Y-112502380D02*
X105256666Y-111502380D01*
X105637619Y-111502380D01*
X105732857Y-111550000D01*
X105780476Y-111597619D01*
X105828095Y-111692857D01*
X105828095Y-111835714D01*
X105780476Y-111930952D01*
X105732857Y-111978571D01*
X105637619Y-112026190D01*
X105256666Y-112026190D01*
X106018571Y-112597619D02*
X106780476Y-112597619D01*
X107018571Y-112502380D02*
X107018571Y-111502380D01*
X107494761Y-112502380D02*
X107494761Y-111502380D01*
X108066190Y-112502380D01*
X108066190Y-111502380D01*
D12*
X167954285Y-111585714D02*
X167954285Y-111419047D01*
X168216190Y-111347619D02*
X168216190Y-111585714D01*
X167716190Y-111585714D01*
X167716190Y-111347619D01*
X168192380Y-111157142D02*
X168216190Y-111085714D01*
X168216190Y-110966666D01*
X168192380Y-110919047D01*
X168168571Y-110895238D01*
X168120952Y-110871428D01*
X168073333Y-110871428D01*
X168025714Y-110895238D01*
X168001904Y-110919047D01*
X167978095Y-110966666D01*
X167954285Y-111061904D01*
X167930476Y-111109523D01*
X167906666Y-111133333D01*
X167859047Y-111157142D01*
X167811428Y-111157142D01*
X167763809Y-111133333D01*
X167740000Y-111109523D01*
X167716190Y-111061904D01*
X167716190Y-110942857D01*
X167740000Y-110871428D01*
X168216190Y-110657142D02*
X167716190Y-110657142D01*
X167716190Y-110538095D01*
X167740000Y-110466666D01*
X167787619Y-110419047D01*
X167835238Y-110395238D01*
X167930476Y-110371428D01*
X168001904Y-110371428D01*
X168097142Y-110395238D01*
X168144761Y-110419047D01*
X168192380Y-110466666D01*
X168216190Y-110538095D01*
X168216190Y-110657142D01*
X168263809Y-110276190D02*
X168263809Y-109895238D01*
X168192380Y-109800000D02*
X168216190Y-109752380D01*
X168216190Y-109657142D01*
X168192380Y-109609523D01*
X168144761Y-109585714D01*
X168120952Y-109585714D01*
X168073333Y-109609523D01*
X168049523Y-109657142D01*
X168049523Y-109728571D01*
X168025714Y-109776190D01*
X167978095Y-109800000D01*
X167954285Y-109800000D01*
X167906666Y-109776190D01*
X167882857Y-109728571D01*
X167882857Y-109657142D01*
X167906666Y-109609523D01*
X168216190Y-109371428D02*
X167882857Y-109371428D01*
X167716190Y-109371428D02*
X167740000Y-109395238D01*
X167763809Y-109371428D01*
X167740000Y-109347619D01*
X167716190Y-109371428D01*
X167763809Y-109371428D01*
X167882857Y-109133333D02*
X168216190Y-109133333D01*
X167930476Y-109133333D02*
X167906666Y-109109523D01*
X167882857Y-109061904D01*
X167882857Y-108990476D01*
X167906666Y-108942857D01*
X167954285Y-108919047D01*
X168216190Y-108919047D01*
X168216190Y-108680952D02*
X167716190Y-108680952D01*
X168025714Y-108633333D02*
X168216190Y-108490476D01*
X167882857Y-108490476D02*
X168073333Y-108680952D01*
D13*
%TO.C,U2*%
X166175000Y-108580000D02*
X167175000Y-108580000D01*
X166175000Y-111380000D02*
X167475000Y-111380000D01*
%TO.C,J14*%
X165668000Y-82804000D02*
X163068000Y-82804000D01*
X163068000Y-82804000D02*
X163068000Y-85404000D01*
X165668000Y-84074000D02*
X165668000Y-85404000D01*
X165668000Y-77664000D02*
X160468000Y-77664000D01*
X163068000Y-85404000D02*
X160468000Y-85404000D01*
X165668000Y-85404000D02*
X164338000Y-85404000D01*
X160468000Y-85404000D02*
X160468000Y-77664000D01*
X165668000Y-82804000D02*
X165668000Y-77664000D01*
%TO.C,J15*%
X111280000Y-78280000D02*
X106140000Y-78280000D01*
X111280000Y-75620000D02*
X111280000Y-78280000D01*
X111280000Y-75620000D02*
X106140000Y-75620000D01*
X106140000Y-75620000D02*
X106140000Y-78280000D01*
X113880000Y-78280000D02*
X112550000Y-78280000D01*
X113880000Y-76950000D02*
X113880000Y-78280000D01*
%TO.C,J13*%
X168148000Y-70210000D02*
X168148000Y-72870000D01*
X170748000Y-72870000D02*
X169418000Y-72870000D01*
X168148000Y-70210000D02*
X157928000Y-70210000D01*
X168148000Y-72870000D02*
X157928000Y-72870000D01*
X157928000Y-70210000D02*
X157928000Y-72870000D01*
X170748000Y-71540000D02*
X170748000Y-72870000D01*
%TO.C,J7*%
X118012000Y-139402000D02*
X112462000Y-139402000D01*
X107962000Y-134952000D02*
X107962000Y-134202000D01*
X105862000Y-133902000D02*
X105862000Y-135152000D01*
X107112000Y-133902000D02*
X105862000Y-133902000D01*
X106152000Y-134192000D02*
X106152000Y-140162000D01*
X106162000Y-134202000D02*
X106162000Y-134952000D01*
X118762000Y-134202000D02*
X116962000Y-134202000D01*
X118772000Y-134192000D02*
X106152000Y-134192000D01*
X107962000Y-134202000D02*
X106162000Y-134202000D01*
X109462000Y-134202000D02*
X109462000Y-134952000D01*
X118762000Y-136452000D02*
X118012000Y-136452000D01*
X115462000Y-134952000D02*
X115462000Y-134202000D01*
X116962000Y-134202000D02*
X116962000Y-134952000D01*
X118012000Y-136452000D02*
X118012000Y-139402000D01*
X106912000Y-136452000D02*
X106912000Y-139402000D01*
X106162000Y-134952000D02*
X107962000Y-134952000D01*
X106912000Y-139402000D02*
X112462000Y-139402000D01*
X116962000Y-134952000D02*
X118762000Y-134952000D01*
X106162000Y-136452000D02*
X106912000Y-136452000D01*
X109462000Y-134952000D02*
X115462000Y-134952000D01*
X106152000Y-140162000D02*
X118772000Y-140162000D01*
X118772000Y-140162000D02*
X118772000Y-134192000D01*
X115462000Y-134202000D02*
X109462000Y-134202000D01*
X118762000Y-134952000D02*
X118762000Y-134202000D01*
%TO.C,U3*%
X155775000Y-116990000D02*
X156775000Y-116990000D01*
X155775000Y-119790000D02*
X157075000Y-119790000D01*
%TO.C,Module1*%
X152325000Y-91719000D02*
X152325000Y-92719000D01*
X153755000Y-78119000D02*
X120755000Y-78119000D01*
X156105000Y-91719000D02*
X156105000Y-92719000D01*
X156105000Y-91719000D02*
X152325000Y-91719000D01*
X157255000Y-129619000D02*
X157255000Y-81619000D01*
X117255000Y-81619000D02*
X117255000Y-129619000D01*
X118405000Y-114519000D02*
X118405000Y-113519000D01*
X156105000Y-114519000D02*
X152325000Y-114519000D01*
X118405000Y-91719000D02*
X118405000Y-92719000D01*
X122185000Y-91719000D02*
X118405000Y-91719000D01*
X122185000Y-114519000D02*
X122185000Y-113519000D01*
X122185000Y-91719000D02*
X122185000Y-92719000D01*
X122185000Y-114519000D02*
X118405000Y-114519000D01*
X120755000Y-133119000D02*
X153755000Y-133119000D01*
X117255000Y-81619000D02*
G75*
G02*
X120755000Y-78119000I3500000J0D01*
G01*
X157255000Y-129619000D02*
G75*
G02*
X153755000Y-133119000I-3500000J0D01*
G01*
X120755000Y-133119000D02*
G75*
G02*
X117255000Y-129619000I0J3500000D01*
G01*
X153755000Y-78119000D02*
G75*
G02*
X157255000Y-81619000I0J-3500000D01*
G01*
%TO.C,U5*%
X161160000Y-75446000D02*
X161160000Y-76746000D01*
X163960000Y-75446000D02*
X163960000Y-76446000D01*
%TO.C,J5*%
X110670000Y-119100000D02*
X110670000Y-118350000D01*
X100570000Y-116850000D02*
X101320000Y-116850000D01*
X100560000Y-119110000D02*
X110680000Y-119110000D01*
X110670000Y-116850000D02*
X109920000Y-116850000D01*
X102370000Y-119100000D02*
X102370000Y-118350000D01*
X102370000Y-118350000D02*
X100570000Y-118350000D01*
X108870000Y-119100000D02*
X110670000Y-119100000D01*
X103870000Y-119100000D02*
X107370000Y-119100000D01*
X110680000Y-119110000D02*
X110680000Y-113140000D01*
X110680000Y-113140000D02*
X100560000Y-113140000D01*
X103870000Y-118350000D02*
X103870000Y-119100000D01*
X107370000Y-119100000D02*
X107370000Y-118350000D01*
X100560000Y-113140000D02*
X100560000Y-119110000D01*
X107370000Y-118350000D02*
X103870000Y-118350000D01*
X110670000Y-118350000D02*
X108870000Y-118350000D01*
X109720000Y-119400000D02*
X110970000Y-119400000D01*
X100570000Y-118350000D02*
X100570000Y-119100000D01*
X101320000Y-113900000D02*
X105620000Y-113900000D01*
X100570000Y-119100000D02*
X102370000Y-119100000D01*
X110970000Y-119400000D02*
X110970000Y-118150000D01*
X101320000Y-116850000D02*
X101320000Y-113900000D01*
X109920000Y-113900000D02*
X105620000Y-113900000D01*
X109920000Y-116850000D02*
X109920000Y-113900000D01*
X108870000Y-118350000D02*
X108870000Y-119100000D01*
%TO.C,U1*%
X141736000Y-138286000D02*
X140336000Y-138286000D01*
X140336000Y-140606000D02*
X142236000Y-140606000D01*
%TO.C,J3*%
X91062000Y-79958000D02*
X99862000Y-79958000D01*
X99862000Y-104958000D02*
X91062000Y-104958000D01*
X91062000Y-79958000D02*
X91062000Y-82108000D01*
X98462000Y-79958000D02*
X98462000Y-82108000D01*
X99862000Y-104958000D02*
X99862000Y-79958000D01*
X91062000Y-104958000D02*
X91062000Y-102108000D01*
X98462000Y-102108000D02*
X98462000Y-104958000D01*
%TO.C,J8*%
X173658000Y-75802000D02*
X173658000Y-77602000D01*
X172158000Y-76552000D02*
X169208000Y-76552000D01*
X174708000Y-76752000D02*
X174708000Y-75502000D01*
X174408000Y-77602000D02*
X174408000Y-75802000D01*
X174418000Y-75792000D02*
X168448000Y-75792000D01*
X174418000Y-88412000D02*
X174418000Y-75792000D01*
X173658000Y-88402000D02*
X174408000Y-88402000D01*
X168448000Y-75792000D02*
X168448000Y-88412000D01*
X173658000Y-79102000D02*
X173658000Y-85102000D01*
X174408000Y-75802000D02*
X173658000Y-75802000D01*
X174708000Y-75502000D02*
X173458000Y-75502000D01*
X174408000Y-86602000D02*
X173658000Y-86602000D01*
X172158000Y-87652000D02*
X169208000Y-87652000D01*
X172158000Y-88402000D02*
X172158000Y-87652000D01*
X174408000Y-85102000D02*
X174408000Y-79102000D01*
X169208000Y-87652000D02*
X169208000Y-82102000D01*
X174408000Y-79102000D02*
X173658000Y-79102000D01*
X172158000Y-75802000D02*
X172158000Y-76552000D01*
X174408000Y-88402000D02*
X174408000Y-86602000D01*
X173658000Y-77602000D02*
X174408000Y-77602000D01*
X173658000Y-86602000D02*
X173658000Y-88402000D01*
X169208000Y-76552000D02*
X169208000Y-82102000D01*
X173658000Y-85102000D02*
X174408000Y-85102000D01*
X168448000Y-88412000D02*
X174418000Y-88412000D01*
%TO.C,J6*%
X113538000Y-115510000D02*
X114868000Y-115510000D01*
X112208000Y-118110000D02*
X114868000Y-118110000D01*
X114868000Y-115510000D02*
X114868000Y-116840000D01*
X112208000Y-118110000D02*
X112208000Y-130870000D01*
X114868000Y-118110000D02*
X114868000Y-130870000D01*
X112208000Y-130870000D02*
X114868000Y-130870000D01*
%TO.C,TP1*%
X158420000Y-75390000D02*
X158420000Y-77790000D01*
X156020000Y-77790000D02*
X156020000Y-75390000D01*
X158420000Y-77790000D02*
X156020000Y-77790000D01*
X156020000Y-75390000D02*
X158420000Y-75390000D01*
%TO.C,J11*%
X156778000Y-136966000D02*
X156778000Y-134306000D01*
X150368000Y-136966000D02*
X149038000Y-136966000D01*
X151638000Y-136966000D02*
X156778000Y-136966000D01*
X151638000Y-134306000D02*
X156778000Y-134306000D01*
X149038000Y-136966000D02*
X149038000Y-135636000D01*
X151638000Y-136966000D02*
X151638000Y-134306000D01*
%TO.C,J9*%
X141224000Y-136966000D02*
X139894000Y-136966000D01*
X142494000Y-134306000D02*
X147634000Y-134306000D01*
X142494000Y-136966000D02*
X142494000Y-134306000D01*
X142494000Y-136966000D02*
X147634000Y-136966000D01*
X139894000Y-136966000D02*
X139894000Y-135636000D01*
X147634000Y-136966000D02*
X147634000Y-134306000D01*
%TO.C,J4*%
X102650000Y-104720000D02*
X100850000Y-104720000D01*
X113450000Y-105470000D02*
X113450000Y-104720000D01*
X100840000Y-110680000D02*
X113460000Y-110680000D01*
X113460000Y-110680000D02*
X113460000Y-104710000D01*
X111650000Y-105470000D02*
X113450000Y-105470000D01*
X110150000Y-105470000D02*
X110150000Y-104720000D01*
X100850000Y-104720000D02*
X100850000Y-105470000D01*
X104150000Y-105470000D02*
X110150000Y-105470000D01*
X102650000Y-105470000D02*
X102650000Y-104720000D01*
X100850000Y-105470000D02*
X102650000Y-105470000D01*
X111650000Y-104720000D02*
X111650000Y-105470000D01*
X101600000Y-109920000D02*
X107150000Y-109920000D01*
X113460000Y-104710000D02*
X100840000Y-104710000D01*
X104150000Y-104720000D02*
X104150000Y-105470000D01*
X112700000Y-106970000D02*
X112700000Y-109920000D01*
X101600000Y-106970000D02*
X101600000Y-109920000D01*
X101800000Y-104420000D02*
X100550000Y-104420000D01*
X113450000Y-104720000D02*
X111650000Y-104720000D01*
X113450000Y-106970000D02*
X112700000Y-106970000D01*
X100840000Y-104710000D02*
X100840000Y-110680000D01*
X110150000Y-104720000D02*
X104150000Y-104720000D01*
X100550000Y-104420000D02*
X100550000Y-105670000D01*
X112700000Y-109920000D02*
X107150000Y-109920000D01*
X100850000Y-106970000D02*
X101600000Y-106970000D01*
%TO.C,U4*%
X158681236Y-142728543D02*
X176447089Y-142728543D01*
X176447089Y-142728543D02*
X176447089Y-111767834D01*
X176447089Y-111767834D02*
X158681236Y-111767834D01*
X158681236Y-111767834D02*
X158681236Y-142728543D01*
%TO.C,R5*%
X100992000Y-129000000D02*
X101322000Y-129000000D01*
X100992000Y-122460000D02*
X100992000Y-129000000D01*
X101322000Y-122460000D02*
X100992000Y-122460000D01*
X103732000Y-129000000D02*
X103402000Y-129000000D01*
X103732000Y-122460000D02*
X103732000Y-129000000D01*
X103402000Y-122460000D02*
X103732000Y-122460000D01*
%TO.C,U6*%
X105451000Y-125730000D02*
X105451000Y-128655000D01*
X108671000Y-125730000D02*
X108671000Y-124230000D01*
X108671000Y-125730000D02*
X108671000Y-127230000D01*
X105451000Y-125730000D02*
X105451000Y-124230000D01*
%TO.C,C1*%
X171939000Y-106510000D02*
X171939000Y-105770000D01*
X173179000Y-105300000D02*
X173179000Y-104233000D01*
X172259000Y-107282000D02*
X172259000Y-106980000D01*
X172659000Y-105300000D02*
X172659000Y-104553000D01*
X173740000Y-108202000D02*
X173740000Y-106980000D01*
X172059000Y-106908000D02*
X172059000Y-105372000D01*
X176289801Y-107335000D02*
X175889801Y-107335000D01*
X173820000Y-108211000D02*
X173820000Y-106980000D01*
X173700000Y-108196000D02*
X173700000Y-106980000D01*
X173380000Y-105300000D02*
X173380000Y-104158000D01*
X172219000Y-107220000D02*
X172219000Y-106980000D01*
X173259000Y-108080000D02*
X173259000Y-106980000D01*
X172579000Y-105300000D02*
X172579000Y-104624000D01*
X173620000Y-105300000D02*
X173620000Y-104098000D01*
X172579000Y-107656000D02*
X172579000Y-106980000D01*
X172099000Y-106999000D02*
X172099000Y-105281000D01*
X172619000Y-105300000D02*
X172619000Y-104588000D01*
X173059000Y-105300000D02*
X173059000Y-104289000D01*
X173780000Y-108207000D02*
X173780000Y-106980000D01*
X173820000Y-105300000D02*
X173820000Y-104069000D01*
X173500000Y-105300000D02*
X173500000Y-104124000D01*
X172459000Y-105300000D02*
X172459000Y-104744000D01*
X172739000Y-107790000D02*
X172739000Y-106980000D01*
X172939000Y-105300000D02*
X172939000Y-104355000D01*
X172979000Y-107948000D02*
X172979000Y-106980000D01*
X172899000Y-105300000D02*
X172899000Y-104380000D01*
X172739000Y-105300000D02*
X172739000Y-104490000D01*
X172819000Y-107848000D02*
X172819000Y-106980000D01*
X172699000Y-105300000D02*
X172699000Y-104521000D01*
X173219000Y-108064000D02*
X173219000Y-106980000D01*
X173259000Y-105300000D02*
X173259000Y-104200000D01*
X172699000Y-107759000D02*
X172699000Y-106980000D01*
X171979000Y-106677000D02*
X171979000Y-105603000D01*
X172019000Y-106804000D02*
X172019000Y-105476000D01*
X172819000Y-105300000D02*
X172819000Y-104432000D01*
X173940000Y-108219000D02*
X173940000Y-104061000D01*
X173580000Y-105300000D02*
X173580000Y-104106000D01*
X173500000Y-108156000D02*
X173500000Y-106980000D01*
X173219000Y-105300000D02*
X173219000Y-104216000D01*
X173980000Y-108220000D02*
X173980000Y-104060000D01*
X173540000Y-105300000D02*
X173540000Y-104115000D01*
X172859000Y-105300000D02*
X172859000Y-104405000D01*
X174020000Y-108220000D02*
X174020000Y-104060000D01*
X173299000Y-105300000D02*
X173299000Y-104186000D01*
X172379000Y-107444000D02*
X172379000Y-106980000D01*
X173460000Y-105300000D02*
X173460000Y-104135000D01*
X173420000Y-105300000D02*
X173420000Y-104146000D01*
X172259000Y-105300000D02*
X172259000Y-104998000D01*
X173660000Y-105300000D02*
X173660000Y-104090000D01*
X173700000Y-105300000D02*
X173700000Y-104084000D01*
X172339000Y-107394000D02*
X172339000Y-106980000D01*
X172899000Y-107900000D02*
X172899000Y-106980000D01*
X172339000Y-105300000D02*
X172339000Y-104886000D01*
X173139000Y-105300000D02*
X173139000Y-104251000D01*
X173179000Y-108047000D02*
X173179000Y-106980000D01*
X172539000Y-107618000D02*
X172539000Y-106980000D01*
X172659000Y-107727000D02*
X172659000Y-106980000D01*
X173059000Y-107991000D02*
X173059000Y-106980000D01*
X172459000Y-107536000D02*
X172459000Y-106980000D01*
X173740000Y-105300000D02*
X173740000Y-104078000D01*
X172139000Y-107080000D02*
X172139000Y-105200000D01*
X172299000Y-105300000D02*
X172299000Y-104940000D01*
X173460000Y-108145000D02*
X173460000Y-106980000D01*
X173860000Y-108214000D02*
X173860000Y-104066000D01*
X173299000Y-108094000D02*
X173299000Y-106980000D01*
X172979000Y-105300000D02*
X172979000Y-104332000D01*
X173139000Y-108029000D02*
X173139000Y-106980000D01*
X173420000Y-108134000D02*
X173420000Y-106980000D01*
X173580000Y-108174000D02*
X173580000Y-106980000D01*
X173620000Y-108182000D02*
X173620000Y-106980000D01*
X173380000Y-108122000D02*
X173380000Y-106980000D01*
X173099000Y-108010000D02*
X173099000Y-106980000D01*
X173019000Y-107970000D02*
X173019000Y-106980000D01*
X172299000Y-107340000D02*
X172299000Y-106980000D01*
X172179000Y-107153000D02*
X172179000Y-105127000D01*
X176089801Y-107535000D02*
X176089801Y-107135000D01*
X173340000Y-105300000D02*
X173340000Y-104172000D01*
X173019000Y-105300000D02*
X173019000Y-104310000D01*
X172779000Y-105300000D02*
X172779000Y-104460000D01*
X172219000Y-105300000D02*
X172219000Y-105060000D01*
X172499000Y-107578000D02*
X172499000Y-106980000D01*
X173780000Y-105300000D02*
X173780000Y-104073000D01*
X172379000Y-105300000D02*
X172379000Y-104836000D01*
X172419000Y-105300000D02*
X172419000Y-104789000D01*
X172939000Y-107925000D02*
X172939000Y-106980000D01*
X172539000Y-105300000D02*
X172539000Y-104662000D01*
X173540000Y-108165000D02*
X173540000Y-106980000D01*
X172779000Y-107820000D02*
X172779000Y-106980000D01*
X172499000Y-105300000D02*
X172499000Y-104702000D01*
X173099000Y-105300000D02*
X173099000Y-104270000D01*
X172859000Y-107875000D02*
X172859000Y-106980000D01*
X173900000Y-108217000D02*
X173900000Y-104063000D01*
X172419000Y-107491000D02*
X172419000Y-106980000D01*
X173660000Y-108190000D02*
X173660000Y-106980000D01*
X173340000Y-108108000D02*
X173340000Y-106980000D01*
X172619000Y-107692000D02*
X172619000Y-106980000D01*
X176140000Y-106140000D02*
G75*
G03*
X176140000Y-106140000I-2120000J0D01*
G01*
%TO.C,J10*%
X135890000Y-136906000D02*
X138490000Y-136906000D01*
X120590000Y-134306000D02*
X120590000Y-139506000D01*
X138490000Y-139506000D02*
X120590000Y-139506000D01*
X138490000Y-136906000D02*
X138490000Y-139506000D01*
X137160000Y-134306000D02*
X138490000Y-134306000D01*
X135890000Y-134306000D02*
X120590000Y-134306000D01*
X135890000Y-134306000D02*
X135890000Y-136906000D01*
X138490000Y-134306000D02*
X138490000Y-135636000D01*
%TO.C,R1*%
X159420000Y-100110000D02*
X159090000Y-100110000D01*
X161830000Y-106650000D02*
X161500000Y-106650000D01*
X161500000Y-100110000D02*
X161830000Y-100110000D01*
X161830000Y-100110000D02*
X161830000Y-106650000D01*
X159090000Y-106650000D02*
X159420000Y-106650000D01*
X159090000Y-100110000D02*
X159090000Y-106650000D01*
%TO.C,R4*%
X166350000Y-89100000D02*
X159810000Y-89100000D01*
X166350000Y-86690000D02*
X166350000Y-86360000D01*
X159810000Y-89100000D02*
X159810000Y-88770000D01*
X166350000Y-86360000D02*
X159810000Y-86360000D01*
X166350000Y-88770000D02*
X166350000Y-89100000D01*
X159810000Y-86360000D02*
X159810000Y-86690000D01*
%TO.C,J1*%
X173358000Y-90858000D02*
X168408000Y-90858000D01*
X159958000Y-90858000D02*
X164908000Y-90858000D01*
X173358000Y-96858000D02*
X159958000Y-96858000D01*
%TO.C,C2*%
X102538000Y-133854000D02*
X101362000Y-133854000D01*
X105346000Y-134014000D02*
X104218000Y-134014000D01*
X105458000Y-133374000D02*
X101298000Y-133374000D01*
X105428000Y-133694000D02*
X104218000Y-133694000D01*
X105449000Y-133534000D02*
X104218000Y-133534000D01*
X102538000Y-134535000D02*
X101670000Y-134535000D01*
X105302000Y-134135000D02*
X104218000Y-134135000D01*
X102538000Y-134975000D02*
X102074000Y-134975000D01*
X105318000Y-134095000D02*
X104218000Y-134095000D01*
X104773000Y-131264199D02*
X104373000Y-131264199D01*
X104578000Y-135055000D02*
X104218000Y-135055000D01*
X104930000Y-134735000D02*
X104218000Y-134735000D01*
X102538000Y-134095000D02*
X101438000Y-134095000D01*
X102538000Y-133534000D02*
X101307000Y-133534000D01*
X102538000Y-134735000D02*
X101826000Y-134735000D01*
X102538000Y-135095000D02*
X102236000Y-135095000D01*
X105285000Y-134175000D02*
X104218000Y-134175000D01*
X102538000Y-134655000D02*
X101759000Y-134655000D01*
X102538000Y-134775000D02*
X101862000Y-134775000D01*
X105267000Y-134215000D02*
X104218000Y-134215000D01*
X105455000Y-133454000D02*
X101301000Y-133454000D01*
X103915000Y-135375000D02*
X102841000Y-135375000D01*
X105163000Y-134415000D02*
X104218000Y-134415000D01*
X102538000Y-134135000D02*
X101454000Y-134135000D01*
X105229000Y-134295000D02*
X104218000Y-134295000D01*
X105360000Y-133974000D02*
X104218000Y-133974000D01*
X104632000Y-135015000D02*
X104218000Y-135015000D01*
X102538000Y-135015000D02*
X102124000Y-135015000D01*
X102538000Y-134895000D02*
X101982000Y-134895000D01*
X102538000Y-134855000D02*
X101940000Y-134855000D01*
X102538000Y-133614000D02*
X101316000Y-133614000D01*
X102538000Y-134935000D02*
X102027000Y-134935000D01*
X105058000Y-134575000D02*
X104218000Y-134575000D01*
X104816000Y-134855000D02*
X104218000Y-134855000D01*
X102538000Y-135135000D02*
X102298000Y-135135000D01*
X105394000Y-133854000D02*
X104218000Y-133854000D01*
X105452000Y-133494000D02*
X101304000Y-133494000D01*
X102538000Y-134295000D02*
X101527000Y-134295000D01*
X105458000Y-133334000D02*
X101298000Y-133334000D01*
X105445000Y-133574000D02*
X104218000Y-133574000D01*
X102538000Y-134615000D02*
X101728000Y-134615000D01*
X104391000Y-135175000D02*
X102365000Y-135175000D01*
X102538000Y-134455000D02*
X101618000Y-134455000D01*
X102538000Y-133654000D02*
X101322000Y-133654000D01*
X105372000Y-133934000D02*
X104218000Y-133934000D01*
X104318000Y-135215000D02*
X102438000Y-135215000D01*
X105403000Y-133814000D02*
X104218000Y-133814000D01*
X105248000Y-134255000D02*
X104218000Y-134255000D01*
X105383000Y-133894000D02*
X104218000Y-133894000D01*
X104965000Y-134695000D02*
X104218000Y-134695000D01*
X102538000Y-133934000D02*
X101384000Y-133934000D01*
X103748000Y-135415000D02*
X103008000Y-135415000D01*
X102538000Y-134255000D02*
X101508000Y-134255000D01*
X102538000Y-134815000D02*
X101900000Y-134815000D01*
X102538000Y-133814000D02*
X101353000Y-133814000D01*
X102538000Y-133734000D02*
X101336000Y-133734000D01*
X104682000Y-134975000D02*
X104218000Y-134975000D01*
X102538000Y-133774000D02*
X101344000Y-133774000D01*
X105440000Y-133614000D02*
X104218000Y-133614000D01*
X102538000Y-134575000D02*
X101698000Y-134575000D01*
X102538000Y-134335000D02*
X101548000Y-134335000D01*
X105186000Y-134375000D02*
X104218000Y-134375000D01*
X105420000Y-133734000D02*
X104218000Y-133734000D01*
X105086000Y-134535000D02*
X104218000Y-134535000D01*
X105208000Y-134335000D02*
X104218000Y-134335000D01*
X102538000Y-135055000D02*
X102178000Y-135055000D01*
X102538000Y-134055000D02*
X101424000Y-134055000D01*
X105332000Y-134055000D02*
X104218000Y-134055000D01*
X102538000Y-134375000D02*
X101570000Y-134375000D01*
X105412000Y-133774000D02*
X104218000Y-133774000D01*
X102538000Y-134415000D02*
X101593000Y-134415000D01*
X105434000Y-133654000D02*
X104218000Y-133654000D01*
X105457000Y-133414000D02*
X101299000Y-133414000D01*
X104856000Y-134815000D02*
X104218000Y-134815000D01*
X102538000Y-133574000D02*
X101311000Y-133574000D01*
X102538000Y-134014000D02*
X101410000Y-134014000D01*
X102538000Y-134495000D02*
X101643000Y-134495000D01*
X104146000Y-135295000D02*
X102610000Y-135295000D01*
X104997000Y-134655000D02*
X104218000Y-134655000D01*
X104237000Y-135255000D02*
X102519000Y-135255000D01*
X102538000Y-133694000D02*
X101328000Y-133694000D01*
X105138000Y-134455000D02*
X104218000Y-134455000D01*
X102538000Y-134175000D02*
X101471000Y-134175000D01*
X104774000Y-134895000D02*
X104218000Y-134895000D01*
X104458000Y-135135000D02*
X104218000Y-135135000D01*
X102538000Y-134695000D02*
X101791000Y-134695000D01*
X105113000Y-134495000D02*
X104218000Y-134495000D01*
X102538000Y-133894000D02*
X101373000Y-133894000D01*
X104520000Y-135095000D02*
X104218000Y-135095000D01*
X102538000Y-134215000D02*
X101489000Y-134215000D01*
X104729000Y-134935000D02*
X104218000Y-134935000D01*
X105028000Y-134615000D02*
X104218000Y-134615000D01*
X104894000Y-134775000D02*
X104218000Y-134775000D01*
X104042000Y-135335000D02*
X102714000Y-135335000D01*
X102538000Y-133974000D02*
X101396000Y-133974000D01*
X104573000Y-131064199D02*
X104573000Y-131464199D01*
X105498000Y-133334000D02*
G75*
G03*
X105498000Y-133334000I-2120000J0D01*
G01*
%TO.C,R3*%
X169490000Y-106660000D02*
X169820000Y-106660000D01*
X169820000Y-100120000D02*
X169490000Y-100120000D01*
X167410000Y-106660000D02*
X167080000Y-106660000D01*
X167080000Y-106660000D02*
X167080000Y-100120000D01*
X167080000Y-100120000D02*
X167410000Y-100120000D01*
X169820000Y-106660000D02*
X169820000Y-100120000D01*
%TO.C,J2*%
X140230000Y-76030000D02*
X117310000Y-76030000D01*
X142830000Y-73430000D02*
X140230000Y-73430000D01*
X142830000Y-74700000D02*
X142830000Y-76030000D01*
X142830000Y-76030000D02*
X141500000Y-76030000D01*
X140230000Y-73430000D02*
X140230000Y-76030000D01*
X142830000Y-70830000D02*
X142830000Y-73430000D01*
X142830000Y-70830000D02*
X117310000Y-70830000D01*
X117310000Y-70830000D02*
X117310000Y-76030000D01*
%TO.C,D1*%
X154730000Y-74741000D02*
X154730000Y-71651000D01*
X149180000Y-73196462D02*
G75*
G02*
X154730000Y-71651170I2990000J462D01*
G01*
X149180000Y-73195538D02*
G75*
G03*
X154730000Y-74740830I2990000J-462D01*
G01*
X154670000Y-73196000D02*
G75*
G03*
X154670000Y-73196000I-2500000J0D01*
G01*
%TO.C,R2*%
X165790000Y-106740000D02*
X165790000Y-100200000D01*
X163380000Y-106740000D02*
X163050000Y-106740000D01*
X163050000Y-100200000D02*
X163380000Y-100200000D01*
X165460000Y-106740000D02*
X165790000Y-106740000D01*
X163050000Y-106740000D02*
X163050000Y-100200000D01*
X165790000Y-100200000D02*
X165460000Y-100200000D01*
%TD*%
M02*
